<?xml version="1.0" standalone="no"?>
<!DOCTYPE svg PUBLIC "-//W3C//DTD SVG 20010904//EN"
 "http://www.w3.org/TR/2001/REC-SVG-20010904/DTD/svg10.dtd">
<svg version="1.0" xmlns="http://www.w3.org/2000/svg"
 width="300.000000pt" height="300.000000pt" viewBox="0 0 300.000000 300.000000"
 preserveAspectRatio="xMidYMid meet">
<metadata>
Created by potrace 1.10, written by Peter Selinger 2001-2011
</metadata>
<g transform="translate(0.000000,300.000000) scale(0.050000,-0.050000)"
fill="#f2efef" stroke="none">
<path d="M2741 5747 c-349 -174 -537 -622 -439 -1047 39 -172 177 -237 276
-132 43 46 45 58 31 248 -23 333 43 496 261 635 158 101 195 201 105 283 -74
68 -118 70 -234 13z"/>
<path d="M1403 4980 c-263 -56 -360 -223 -193 -332 49 -32 61 -32 189 -1 249
60 378 22 481 -141 122 -193 320 -170 320 38 0 270 -440 511 -797 436z"/>
<path d="M2770 4530 l-160 -149 -102 12 c-126 15 -233 -30 -294 -124 l-43 -65
-223 11 c-307 15 -304 23 -147 -388 160 -416 142 -408 379 -187 165 154 172
158 251 147 97 -14 230 45 281 123 32 49 33 49 268 37 321 -18 317 -27 159
386 -159 414 -143 406 -369 197z"/>
<path d="M3389 4291 c65 -174 56 -163 176 -202 570 -185 1038 -714 1107 -1253
22 -168 35 -189 126 -203 447 -72 323 -759 -127 -704 l-101 12 -65 -127 c-586
-1139 -2300 -1127 -2900 22 l-55 105 -101 -12 c-444 -55 -573 572 -143 694 97
27 134 64 134 135 0 107 67 321 162 515 l99 202 -53 142 c-29 79 -61 138 -70
132 -87 -54 -313 -496 -371 -725 -33 -134 -43 -150 -107 -180 -529 -251 -413
-1037 175 -1185 120 -30 128 -36 222 -170 756 -1076 2409 -1064 3148 22 78
115 92 127 174 139 592 91 742 933 211 1190 -65 32 -90 55 -90 87 0 24 -31
131 -68 239 -219 635 -802 1136 -1448 1243 l-85 15 50 -133z"/>
<path d="M2368 2712 c-208 -208 80 -524 301 -330 170 149 70 398 -160 398 -56
0 -89 -16 -141 -68z"/>
<path d="M3453 2720 c-165 -145 -70 -390 151 -390 87 0 107 8 158 65 191 214
-94 514 -309 325z"/>
<path d="M2480 1787 c1 -20 18 -74 38 -120 207 -454 848 -469 1073 -25 99 195
79 206 -191 106 -213 -79 -469 -79 -670 1 -196 77 -250 85 -250 38z"/>
</g>
</svg>
