<?xml version="1.0" standalone="no"?>
<!DOCTYPE svg PUBLIC "-//W3C//DTD SVG 20010904//EN"
 "http://www.w3.org/TR/2001/REC-SVG-20010904/DTD/svg10.dtd">
<svg version="1.0" xmlns="http://www.w3.org/2000/svg"
 width="300.000000pt" height="136.000000pt" viewBox="0 0 300.000000 136.000000"
 preserveAspectRatio="xMidYMid meet">
<metadata>
Created by potrace 1.10, written by Peter Selinger 2001-2011
</metadata>
<g transform="translate(0.000000,136.000000) scale(0.100000,-0.100000)"
fill="#f7f0f0" stroke="none">
<path d="M1855 1330 c-147 -61 -176 -65 -369 -50 -95 7 -193 11 -219 8 -47 -6
-168 -61 -224 -104 l-31 -24 -65 40 c-144 87 -198 93 -412 44 -185 -42 -247
-42 -425 1 -30 7 -67 16 -82 19 l-27 6 25 -55 c29 -67 29 -64 5 -58 -28 7 -32
-8 -11 -54 18 -40 18 -42 0 -45 -17 -3 17 -99 355 -988 l25 -65 87 4 c49 1
337 20 641 40 379 25 556 33 563 26 5 -5 39 -10 74 -10 49 0 70 5 93 22 25 18
103 32 553 98 288 41 535 78 549 81 25 6 24 6 -20 45 l-45 38 53 1 c28 0 52 4
52 8 0 7 -70 67 -188 160 -15 11 -12 16 20 48 l36 37 -465 378 c-256 209 -468
379 -472 378 -3 0 -37 -13 -76 -29z m529 -384 l429 -350 -44 -38 c-121 -107
-231 -172 -334 -197 -27 -7 -125 -16 -217 -20 -160 -8 -171 -9 -230 -39 -35
-17 -96 -58 -137 -91 l-75 -59 -254 337 c-140 185 -306 405 -370 489 -63 84
-113 154 -111 156 35 28 116 75 159 93 64 26 111 28 302 11 160 -14 213 -7
340 44 62 26 87 31 99 23 8 -5 208 -167 443 -359z m-1577 278 c26 -9 77 -32
112 -52 58 -34 76 -54 230 -257 487 -641 573 -758 555 -751 -10 4 -89 26 -174
48 -212 55 -280 56 -490 2 -134 -34 -169 -39 -260 -38 -89 1 -252 21 -311 40
-11 3 -35 50 -63 122 -208 536 -334 867 -331 870 2 2 36 -3 76 -12 162 -37
203 -35 524 37 42 10 86 6 132 -9z m-568 -563 l184 -478 91 -17 c224 -42 329
-39 554 16 171 42 248 42 417 0 155 -39 267 -71 279 -82 5 -5 14 -6 21 -4 7 3
16 1 20 -5 4 -7 -3 -11 -17 -11 -34 0 -102 21 -110 33 -4 7 -59 14 -135 18
-170 10 -600 9 -638 -1 -30 -8 -30 -8 8 -9 28 -1 36 -4 31 -13 -5 -9 -3 -9 9
1 11 9 28 11 53 6 46 -8 192 -8 262 1 49 6 54 5 50 -12 -2 -12 -12 -19 -28
-20 -14 -1 -89 -4 -167 -8 -78 -3 -148 -8 -155 -11 -13 -4 -224 -19 -428 -31
-58 -3 -108 -8 -111 -10 -9 -5 -29 44 -28 69 0 12 3 16 6 10 2 -7 14 -13 26
-14 21 0 21 -1 2 -9 -15 -6 -8 -9 27 -8 26 1 46 4 44 7 -2 3 27 6 66 6 38 -1
72 3 74 7 3 4 14 8 25 8 11 0 17 -5 14 -10 -3 -6 4 -10 17 -10 18 0 20 2 9 9
-11 7 -7 12 20 20 26 8 2 9 -101 5 -74 -4 -150 -7 -168 -8 l-34 -1 -194 500
c-227 584 -209 535 -192 535 8 0 84 -184 197 -479z m2663 -243 l57 -46 -62 -6
c-34 -3 -111 -8 -172 -11 -154 -8 -206 -15 -180 -26 17 -7 17 -8 -7 -8 -16 -1
-28 -5 -28 -9 0 -4 15 -7 33 -6 28 2 164 10 300 18 80 5 90 -36 12 -48 -16 -3
-68 -10 -115 -16 -47 -7 -107 -16 -135 -20 -133 -22 -662 -98 -677 -97 -10 0
-18 2 -18 4 0 3 102 53 120 58 3 1 16 6 30 12 14 6 42 18 64 27 21 9 47 16 57
16 11 0 19 5 19 10 0 6 -12 8 -27 4 -23 -4 -25 -3 -13 6 29 22 -42 0 -155 -49
-60 -26 -109 -52 -108 -59 2 -6 -11 -19 -27 -27 -17 -9 -28 -20 -25 -25 8 -13
-10 -21 -30 -14 -14 6 -12 11 12 36 34 36 147 112 199 135 27 11 88 19 195 24
86 4 187 15 224 24 84 19 202 80 280 144 l60 49 30 -27 c17 -15 56 -48 87 -73z
m-59 -75 c-7 -2 -19 -2 -25 0 -7 3 -2 5 12 5 14 0 19 -2 13 -5z m-2458 -183
c3 -5 1 -10 -4 -10 -6 0 -11 5 -11 10 0 6 2 10 4 10 3 0 8 -4 11 -10z m1365
-15 c10 -12 10 -15 -4 -15 -9 0 -16 7 -16 15 0 8 2 15 4 15 2 0 9 -7 16 -15z"/>
<path d="M738 83 c6 -2 18 -2 25 0 6 3 1 5 -13 5 -14 0 -19 -2 -12 -5z"/>
</g>
</svg>
