<?xml version="1.0" standalone="no"?>
<!DOCTYPE svg PUBLIC "-//W3C//DTD SVG 20010904//EN"
 "http://www.w3.org/TR/2001/REC-SVG-20010904/DTD/svg10.dtd">
<svg version="1.0" xmlns="http://www.w3.org/2000/svg"
 width="300.000000pt" height="377.000000pt" viewBox="0 0 300.000000 377.000000"
 preserveAspectRatio="xMidYMid meet">
<metadata>
Created by potrace 1.10, written by Peter Selinger 2001-2011
</metadata>
<g transform="translate(0.000000,377.000000) scale(0.100000,-0.100000)"
fill="#fbfbfb" stroke="none">
<path d="M2230 3639 c-25 -15 -76 -36 -115 -45 -107 -26 -145 -44 -177 -88
-15 -21 -28 -46 -29 -55 0 -9 -7 -1 -15 17 -12 28 -18 32 -42 26 -37 -9 -38
-11 -18 -33 22 -25 38 -80 31 -112 l-6 -27 -43 24 -43 24 -17 98 -17 99 -127
16 c-326 43 -708 47 -781 9 -48 -25 -83 -94 -82 -159 0 -26 14 -127 30 -223
16 -96 28 -177 26 -178 -2 -2 -18 20 -37 48 -27 43 -66 76 -203 175 -94 67
-171 121 -173 120 -3 -3 31 -277 43 -351 5 -30 2 -33 -61 -70 -37 -21 -84 -59
-105 -84 -21 -25 -68 -80 -104 -122 l-65 -76 25 -19 24 -18 -10 -255 c-11
-275 -5 -550 15 -670 12 -67 11 -78 -5 -115 -44 -100 -31 -173 36 -195 19 -6
43 -9 54 -5 16 5 26 -12 72 -117 30 -68 68 -143 85 -168 31 -45 31 -46 37
-215 9 -251 43 -377 119 -439 100 -82 128 -101 178 -124 62 -29 58 -28 196
-38 95 -6 197 6 208 25 2 3 0 42 -5 86 -13 133 -79 844 -79 855 0 5 -15 10
-34 10 l-35 0 -3 108 c-10 359 35 663 129 860 114 240 464 391 908 392 273 0
383 -29 473 -124 27 -28 55 -63 61 -76 9 -16 2 -12 -19 13 -75 88 -173 117
-400 117 -289 0 -534 -52 -763 -160 -76 -36 -98 -64 -124 -161 -22 -83 -22
-381 0 -562 16 -123 15 -128 -3 -160 -70 -119 -88 -314 -72 -798 12 -349 9
-336 92 -374 33 -15 40 -23 45 -59 4 -22 15 -55 24 -71 10 -17 21 -46 24 -64
l7 -34 -72 6 c-143 12 -297 65 -432 148 -68 43 -70 28 -2 -16 210 -134 467
-180 761 -135 438 67 1059 219 1113 273 29 30 39 108 44 358 l3 156 23 -10
c32 -15 87 13 96 48 9 35 -80 301 -111 332 -21 21 -22 29 -16 125 7 125 -8
206 -45 251 -65 77 -69 98 -83 401 -12 263 -14 280 -35 305 -12 14 -31 47 -44
73 -29 63 -112 139 -182 168 -52 21 -60 29 -85 79 -15 30 -60 89 -100 130 -71
73 -71 75 -57 102 21 41 44 147 44 205 0 81 -41 151 -110 187 -46 24 -65 28
-113 25 -44 -2 -56 0 -52 10 3 8 5 15 5 16 0 1 26 0 58 -2 163 -12 288 98 316
276 3 23 3 42 -1 41 -5 0 -28 -14 -53 -30z m35 -31 c-20 -98 -99 -180 -186
-194 -22 -4 -39 -10 -39 -15 0 -15 23 -10 83 20 40 19 52 22 41 10 -29 -33
-115 -61 -182 -61 -70 0 -81 5 -66 30 20 32 74 60 157 82 82 22 127 44 114 56
-4 4 -13 2 -21 -5 -7 -6 -56 -25 -108 -41 -55 -17 -106 -40 -121 -54 -15 -14
-27 -23 -27 -21 0 14 25 55 33 55 6 0 8 3 4 6 -3 4 8 22 26 40 27 29 47 38
117 55 47 11 103 30 125 43 53 32 58 31 50 -6z m-869 -18 c120 -9 244 -24 305
-36 24 -4 27 -12 38 -72 6 -37 14 -77 17 -89 6 -21 4 -22 -45 -16 -102 12
-189 -35 -239 -131 -24 -46 -27 -61 -27 -161 0 -60 3 -122 7 -136 7 -25 5 -26
-48 -38 -74 -17 -222 -92 -291 -148 -30 -24 -56 -43 -58 -41 -2 2 -33 152 -70
333 -37 182 -75 369 -86 417 -31 142 -50 128 175 128 106 0 251 -5 322 -10z
m-521 -68 l12 -60 -37 -11 c-20 -6 -45 -20 -55 -31 -10 -11 -22 -20 -27 -20
-11 0 -10 37 3 85 11 38 74 114 85 102 4 -3 12 -33 19 -65z m1014 -91 c10 -46
5 -121 -8 -121 -3 0 -5 20 -3 45 5 60 -6 118 -20 109 -7 -4 -8 -3 -4 4 14 23
24 12 35 -37z m-982 -56 c7 -33 12 -63 13 -66 0 -4 -15 -10 -33 -13 -33 -6
-64 -32 -84 -69 -7 -14 -12 0 -21 58 -8 51 -9 82 -2 95 17 31 62 61 89 58 22
-3 27 -10 38 -63z m897 -44 c59 -27 71 -29 118 -21 78 12 133 -4 184 -56 49
-49 59 -84 51 -182 -4 -62 -30 -157 -46 -174 -4 -4 -29 1 -57 11 -127 49 -348
65 -504 37 -41 -8 -76 -12 -78 -11 -11 9 -22 141 -17 190 7 63 43 151 73 179
70 63 173 73 276 27z m-1333 -27 c27 -20 47 -40 43 -45 -3 -5 -23 -18 -45 -29
-30 -16 -40 -17 -43 -8 -9 27 -16 118 -10 118 3 0 28 -16 55 -36z m459 -40 c0
-9 25 -137 56 -286 38 -189 52 -274 45 -281 -6 -6 -12 -9 -14 -6 -2 2 -45 71
-96 153 -58 93 -94 162 -97 185 -3 20 -10 64 -15 97 -12 69 1 109 43 138 30
21 78 21 78 0z m-162 -210 c29 -43 95 -147 148 -231 l95 -151 -37 -49 c-36
-46 -124 -218 -124 -242 0 -24 -21 -9 -47 36 -19 34 -29 43 -31 30 -2 -9 -8
-17 -13 -17 -6 0 -6 8 1 20 11 20 -26 83 -232 402 -69 106 -70 109 -84 210
-18 139 -19 133 26 153 22 10 45 24 51 31 9 11 29 1 103 -50 77 -53 99 -75
144 -142z m-300 -134 l28 -45 -80 -27 -81 -27 -24 23 c-14 14 -20 29 -16 36
10 16 127 91 137 88 4 -2 20 -23 36 -48z m1434 16 c76 -14 213 -55 206 -62 -2
-2 -37 7 -78 20 -196 63 -427 54 -656 -24 -124 -42 -217 -101 -316 -200 -74
-75 -93 -102 -137 -191 -75 -154 -102 -263 -136 -541 -4 -27 -10 -48 -14 -48
-12 0 17 204 48 340 33 146 103 306 178 402 174 227 577 362 905 304z m92 -41
c76 -21 133 -48 171 -80 l30 -26 -30 14 c-108 52 -293 82 -454 74 -306 -15
-535 -139 -686 -372 -92 -140 -157 -297 -201 -480 l-24 -100 6 75 c18 234 105
481 216 617 114 138 302 243 508 282 30 6 64 13 75 15 49 11 332 -3 389 -19z
m-123 -34 c111 -12 207 -36 290 -73 60 -27 70 -35 102 -91 20 -33 35 -62 34
-64 -2 -1 -64 2 -137 7 -248 19 -535 -21 -721 -100 -93 -39 -194 -106 -257
-169 -145 -145 -234 -531 -220 -957 l5 -140 -61 8 c-132 18 -205 52 -299 140
-27 25 -50 41 -52 34 -2 -6 -12 -83 -22 -171 -24 -222 -25 -612 0 -708 9 -37
24 -82 33 -100 l16 -32 -30 29 c-77 72 -106 218 -106 526 1 124 6 266 12 315
7 50 12 194 12 320 0 205 16 471 38 609 l7 49 91 -84 90 -84 9 -110 c4 -60 7
-122 6 -137 -3 -44 -6 -291 -5 -395 1 -64 22 -93 69 -93 32 0 56 19 68 53 4
10 2 75 -4 145 -12 152 -12 159 -3 195 4 18 0 42 -11 67 -16 37 -16 41 5 136
55 242 147 447 274 608 106 133 329 243 543 265 110 12 127 12 224 2z m-1393
-72 c-12 -35 -23 -66 -25 -68 -1 -2 -25 17 -53 43 -37 35 -46 48 -35 52 31 12
130 42 132 40 1 -1 -7 -31 -19 -67z m-110 -12 c42 -40 90 -85 107 -100 26 -24
28 -30 17 -47 -18 -29 -14 -38 6 -13 l17 22 93 -86 c89 -82 92 -86 76 -104
-10 -11 -14 -22 -11 -25 4 -4 14 3 24 14 l18 22 60 -58 60 -59 -10 -41 -10
-41 -265 245 c-353 326 -316 286 -295 318 10 14 21 26 26 26 5 0 44 -33 87
-73z m228 -133 l-20 -43 -52 47 c-29 26 -52 52 -53 58 -1 7 8 42 20 79 l20 67
52 -82 53 -82 -20 -44z m-71 -134 c311 -288 285 -258 277 -303 l-7 -38 -275
251 c-151 139 -291 267 -310 286 l-34 33 24 26 24 25 40 -38 c23 -21 140 -130
261 -242z m-40 -75 l305 -280 -6 -45 c-4 -25 -9 -47 -11 -50 -10 -11 -33 35
-27 54 6 18 5 19 -8 8 -12 -10 -18 -8 -32 7 -15 16 -15 19 -1 31 8 7 15 17 15
23 0 5 -9 2 -20 -8 -19 -17 -21 -17 -40 0 -16 15 -18 21 -8 33 11 13 10 14 -7
9 -29 -9 -95 47 -77 64 19 20 14 34 -6 15 -18 -15 -20 -15 -35 2 -16 18 -16
20 3 37 11 10 18 20 15 23 -3 3 -14 -3 -25 -13 -16 -14 -23 -15 -34 -6 -8 7
-12 19 -9 27 3 9 0 12 -8 9 -8 -3 -21 -1 -29 4 -12 9 -12 12 3 29 25 28 21 39
-6 14 -23 -22 -24 -22 -41 -3 -11 12 -14 21 -7 26 6 3 11 11 11 17 0 7 -6 6
-15 -2 -12 -10 -18 -10 -30 0 -12 10 -12 15 2 36 9 14 13 27 11 30 -3 2 -13
-7 -22 -22 -17 -25 -18 -25 -37 -8 -16 14 -17 20 -6 33 10 14 10 14 -4 4 -13
-11 -19 -10 -33 6 -15 16 -15 19 -1 31 8 7 15 17 15 23 0 5 -9 2 -20 -8 -19
-17 -21 -17 -40 0 -15 14 -17 21 -9 32 13 15 -2 18 -17 3 -8 -8 -15 -6 -24 5
-11 13 -9 19 10 40 13 14 18 25 12 25 -6 0 -18 -10 -26 -22 -13 -18 -18 -19
-31 -8 -14 12 -13 15 7 37 12 13 25 22 29 21 4 -2 145 -129 314 -283z m200
144 c32 -50 58 -96 59 -102 2 -26 -22 -12 -88 50 l-68 65 17 39 c10 21 19 39
20 39 1 0 28 -41 60 -91z m-391 -83 l116 -109 0 -286 c-1 -390 -20 -492 -102
-536 -35 -19 -38 -19 -72 -2 -20 9 -35 20 -34 24 1 5 -3 17 -9 29 -22 40 -34
150 -40 364 -6 234 5 633 17 628 4 -2 60 -52 124 -112z m2087 25 c46 -15 80
-34 110 -62 24 -22 36 -38 26 -35 -291 92 -586 85 -891 -21 -111 -39 -289
-120 -336 -153 -36 -25 -37 -16 -8 51 19 45 28 54 90 85 144 73 375 136 562
154 151 14 370 5 447 -19z m-156 -51 c88 -10 296 -55 324 -70 24 -13 -49 -8
-179 13 -160 25 -392 19 -545 -13 -147 -31 -320 -92 -457 -160 -67 -33 -122
-60 -124 -60 -1 0 0 9 3 19 6 24 224 135 363 185 115 41 257 74 365 85 115 12
149 12 250 1z m-171 -58 c3 -5 -31 -13 -74 -18 -44 -5 -80 -6 -80 -2 0 4 19 9
43 12 42 6 86 12 99 15 4 0 9 -3 12 -7z m156 -2 c0 -6 -30 -10 -70 -10 -40 0
-70 4 -70 10 0 6 30 10 70 10 40 0 70 -4 70 -10z m137 -14 c4 -5 -10 -6 -32
-3 -22 4 -53 7 -68 7 -16 0 -26 4 -23 8 6 10 112 -1 123 -12z m-457 -4 c0 -10
-141 -45 -148 -37 -9 9 4 15 69 29 81 18 79 18 79 8z m530 -3 c27 -6 50 -16
50 -22 0 -8 4 -7 12 1 7 7 30 12 53 12 35 -1 38 -2 20 -12 -11 -7 -32 -11 -47
-9 -33 3 -39 -24 -8 -34 11 -4 20 -15 20 -26 0 -32 -38 -5 -48 34 -7 28 -14
33 -54 42 -26 6 -50 13 -54 18 -10 9 -4 9 56 -4z m-360 -7 c0 -9 -151 -32
-159 -26 -10 9 12 17 66 24 84 11 93 11 93 2z m150 -2 c0 -6 -30 -10 -70 -10
-40 0 -70 4 -70 10 0 6 30 10 70 10 40 0 70 -4 70 -10z m139 -6 c10 -9 -8 -11
-66 -6 -35 2 -63 9 -63 14 0 8 119 1 129 -8z m-1853 -104 c-22 -133 -39 -380
-44 -645 l-7 -310 -42 65 c-23 36 -50 76 -60 90 -35 49 -35 70 1 104 66 61 92
231 81 523 -3 100 -3 202 1 228 l6 47 35 -34 c30 -29 34 -38 29 -68z m1394 91
c0 -5 -21 -14 -47 -20 -27 -6 -58 -13 -70 -17 -14 -4 -23 -2 -23 4 0 6 28 17
63 25 78 19 77 19 77 8z m565 -12 c11 -11 -47 -2 -80 13 -13 6 -5 7 25 3 25
-3 49 -10 55 -16z m-725 2 c0 -5 -20 -14 -44 -20 -24 -6 -51 -13 -60 -17 -9
-3 -16 -1 -16 5 0 6 21 17 48 25 56 17 72 19 72 7z m672 -11 c41 -9 59 -18 64
-32 3 -11 17 -24 30 -30 27 -12 34 -34 8 -24 -122 47 -342 68 -497 47 -190
-26 -399 -96 -637 -216 l-130 -65 0 33 c0 31 4 35 77 71 259 130 478 205 662
226 99 11 350 5 423 -10z m154 -7 c12 -4 15 -3 9 6 -5 9 -2 12 11 9 15 -3 19
-12 18 -41 -1 -30 1 -35 12 -26 11 9 14 8 14 -3 0 -11 -12 -15 -45 -15 -41 0
-46 3 -43 21 2 16 9 20 31 18 19 -2 27 2 27 13 0 8 -5 15 -11 15 -5 0 -8 -4
-4 -9 3 -6 -15 -3 -40 5 -25 9 -45 18 -45 21 0 5 35 -2 66 -14z m-816 -11 c0
-5 -24 -16 -52 -26 -29 -9 -59 -20 -65 -23 -7 -2 -13 2 -13 10 0 8 21 20 53
29 63 19 77 21 77 10z m-140 -11 c0 -4 -28 -19 -62 -32 -35 -13 -67 -26 -72
-28 -5 -2 -7 2 -4 9 2 7 28 23 58 35 60 26 80 29 80 16z m750 -31 c30 -7 79
-19 108 -27 l53 -15 -3 -98 c-3 -85 0 -101 16 -119 23 -25 63 -27 88 -4 17 15
18 12 18 -95 0 -61 3 -118 6 -127 5 -12 -3 -9 -31 10 -73 49 -134 60 -315 59
-183 -2 -331 -23 -611 -89 -182 -44 -299 -95 -365 -161 -24 -24 -44 -42 -44
-41 0 1 -7 65 -15 142 -8 77 -15 174 -15 216 l0 76 168 80 c229 111 429 177
613 203 78 11 254 5 329 -10z m-751 -14 c-2 -1 -32 -14 -66 -28 -46 -19 -63
-23 -63 -13 0 16 123 67 129 53 1 -5 1 -10 0 -12z m-149 -14 c0 -7 -102 -62
-115 -62 -3 0 -5 5 -5 11 0 5 24 21 53 34 57 26 67 29 67 17z m1160 -61 c0
-33 3 -67 6 -76 6 -14 3 -14 -21 -3 -20 9 -31 9 -46 0 -29 -18 -28 -26 -13 96
5 40 7 42 40 42 l34 0 0 -59z m-1150 29 c0 -9 -56 -41 -105 -60 -48 -18 -25
10 33 39 63 33 72 36 72 21z m-140 -29 c0 -9 -61 -51 -74 -51 -16 0 -3 20 27
38 37 23 47 26 47 13z m0 -41 c0 -5 -18 -19 -40 -30 -48 -24 -54 -10 -7 18 37
23 47 26 47 12z m-590 -99 c0 -26 2 -77 5 -112 4 -49 3 -56 -4 -29 -14 58 -22
190 -11 190 6 0 10 -22 10 -49z m1878 18 c2 -14 -4 -31 -13 -39 -23 -19 -65 2
-65 33 0 32 9 38 45 35 24 -2 31 -8 33 -29z m-1846 -47 c-7 -2 -9 -9 -6 -14 4
-7 2 -8 -4 -4 -6 4 -9 13 -6 21 4 8 11 12 17 8 8 -5 7 -8 -1 -11z m50 -179
c22 -36 16 -92 -7 -70 -7 7 -16 32 -20 56 -5 32 -11 41 -23 39 -13 -3 -17 -14
-16 -43 1 -22 -3 -43 -8 -46 -18 -11 1 -27 27 -24 14 1 28 -2 31 -7 4 -5 -8
-8 -27 -6 -58 5 -77 78 -33 123 24 23 55 15 76 -22z m-40 -35 c3 -27 2 -48 -3
-48 -5 0 -9 23 -9 52 0 62 5 60 12 -4z m1758 17 c58 -19 113 -63 137 -108 14
-28 14 -29 -3 -22 -86 36 -390 47 -579 20 -285 -40 -529 -128 -632 -227 -98
-94 -135 -316 -150 -905 l-6 -242 -36 19 c-80 40 -75 5 -76 518 0 445 1 459
22 527 58 185 165 275 396 335 422 110 760 141 927 85z m-1712 -127 c3 -21 -1
-28 -14 -28 -14 0 -15 3 -6 12 7 7 12 18 12 26 0 9 -7 6 -19 -9 -16 -20 -21
-21 -35 -10 -29 25 -20 43 22 39 32 -3 37 -7 40 -30z m-79 -5 c10 -19 9 -23
-4 -23 -10 0 -15 9 -15 27 0 29 2 29 19 -4z m1877 2 c61 -18 99 -46 120 -88
l17 -32 -25 23 c-47 43 -131 64 -258 63 -300 -1 -674 -68 -835 -148 -128 -64
-189 -133 -210 -235 -31 -147 -56 -454 -71 -878 -7 -189 -7 -194 -23 -160 -13
30 -16 73 -14 275 3 279 26 629 47 731 42 198 95 263 276 339 132 56 360 110
545 129 90 9 380 -3 431 -19z m-1800 -118 l9 -83 -26 15 c-24 14 -29 13 -54
-3 l-28 -18 6 23 c4 13 7 52 7 87 l0 62 38 0 39 0 9 -83z m1799 57 c105 -27
134 -59 142 -157 5 -63 5 -63 -33 -97 -53 -46 -181 -104 -296 -134 -252 -65
-677 -95 -896 -62 -52 8 -96 17 -100 20 -13 13 21 131 49 172 76 111 283 194
594 239 244 35 453 42 540 19z m-2433 -76 c-4 -44 -2 -51 9 -40 17 15 61 16
77 0 7 -7 12 -8 12 -4 0 14 70 -76 90 -114 11 -21 31 -52 46 -69 26 -31 26
-33 19 -133 l-7 -102 -23 28 c-13 16 -45 80 -71 143 -27 63 -61 128 -75 144
-15 15 -26 30 -25 31 1 2 -11 17 -26 33 l-28 30 6 -32 c4 -20 2 -33 -3 -33
-15 0 -25 112 -14 143 15 40 19 33 13 -25z m628 -73 c17 -20 5 -62 -20 -70
-44 -14 -80 41 -48 73 17 17 53 15 68 -3z m-202 -82 c40 -37 41 -39 32 -78
-11 -46 -37 -312 -43 -430 -9 -174 17 -369 63 -473 30 -67 33 -46 4 25 -41
102 -57 242 -51 443 5 149 26 371 42 447 l5 22 37 -24 c20 -14 53 -30 75 -37
28 -8 37 -16 33 -27 -2 -9 -9 -104 -15 -211 -15 -289 4 -534 54 -683 l23 -67
-36 6 c-42 8 -99 30 -119 46 -8 7 -21 13 -29 14 -23 4 -82 64 -102 104 -61
119 -71 416 -30 833 7 70 14 127 15 127 1 0 20 -17 42 -37z m2138 -89 c-3 -8
-17 -14 -32 -14 -16 0 -37 -11 -54 -30 -50 -53 -213 -103 -460 -141 -178 -28
-561 -33 -697 -10 -82 13 -83 14 -83 42 0 30 8 32 67 14 7 -3 68 -9 136 -15
177 -15 477 5 692 46 166 32 336 96 405 152 l25 20 3 -25 c2 -13 1 -31 -2 -39z
m-51 -60 c-35 -35 -41 -70 -10 -58 10 4 15 0 15 -10 0 -20 -10 -20 -46 -1 -16
8 -23 15 -16 15 6 0 12 9 12 20 0 25 42 70 65 70 11 0 4 -12 -20 -36z m-1733
8 l73 -7 42 -455 c24 -250 41 -460 39 -466 -11 -29 -195 -46 -229 -21 -24 17
-63 179 -77 322 -13 117 -8 534 6 613 6 31 8 32 39 26 18 -3 66 -9 107 -12z
m1814 -19 c7 -8 9 -24 6 -36 -5 -20 -4 -20 11 -8 15 12 17 11 17 -3 0 -12 -8
-15 -32 -12 -18 3 -36 5 -40 5 -16 2 -7 31 13 41 11 7 19 14 16 16 -2 2 -25
-7 -50 -22 -26 -14 -47 -21 -47 -15 0 6 16 19 35 28 19 9 32 20 29 25 -8 13
30 -4 42 -19z m-156 -31 c0 -9 -44 -32 -60 -32 -20 0 -9 17 18 27 35 14 42 15
42 5z m118 -48 c-10 -10 -28 6 -28 24 0 15 1 15 17 -1 9 -9 14 -19 11 -23z
m-198 17 c0 -10 -54 -31 -78 -31 -21 0 -6 13 31 27 40 15 47 15 47 4z m80 4
c0 -8 -62 -37 -67 -31 -4 3 9 12 28 20 39 18 39 17 39 11z m61 -25 c34 0 79
-200 79 -354 0 -142 -18 -363 -31 -387 -15 -30 -53 -44 -255 -99 -104 -28
-198 -54 -208 -57 -18 -5 -18 -4 1 21 55 69 85 254 87 527 l0 195 82 21 c91
24 221 75 250 99 22 18 19 17 -99 -31 -170 -70 -303 -95 -628 -116 -132 -8
-218 -8 -345 0 -206 14 -214 16 -214 48 0 23 3 24 38 19 263 -43 649 -31 902
28 99 23 245 71 286 94 12 7 23 7 29 1 5 -5 17 -9 26 -9z m145 -42 c9 -29 23
-65 31 -80 13 -28 13 -28 -12 -16 -21 10 -30 8 -54 -9 l-28 -21 -15 79 -15 79
31 9 c17 5 34 10 38 10 3 1 14 -23 24 -51z m-386 32 c0 -14 -72 -32 -84 -20
-5 5 2 11 20 15 16 4 34 8 39 10 18 6 25 5 25 -5z m100 2 c0 -10 -79 -36 -87
-29 -3 4 39 22 85 36 1 1 2 -3 2 -7z m-200 -27 c0 -8 -8 -15 -17 -15 -10 0
-35 -3 -55 -6 -56 -10 -47 12 10 24 26 5 50 10 55 11 4 0 7 -6 7 -14z m100 -4
c0 -5 -11 -12 -24 -15 -13 -3 -31 -9 -40 -12 -9 -3 -16 -2 -16 4 0 5 17 14 38
20 20 5 38 10 40 11 1 1 2 -3 2 -8z m-961 -17 c2 -2 2 -6 -1 -9 -8 -8 -68 7
-68 17 0 9 58 2 69 -8z m741 1 c0 -11 -11 -15 -39 -15 -22 0 -47 -3 -57 -7
-12 -4 -15 -2 -12 8 3 8 24 17 49 20 24 3 47 7 52 7 4 1 7 -5 7 -13z m-625
-16 c15 -6 10 -8 -20 -8 -47 -1 -85 8 -85 19 0 9 74 1 105 -11z m505 1 c0 -5
-15 -10 -32 -10 -18 0 -43 -3 -55 -6 -13 -4 -23 -2 -23 4 0 13 23 19 73 21 20
0 37 -3 37 -9z m239 0 c-26 -15 -99 -24 -99 -12 0 10 32 17 90 20 20 1 22 0 9
-8z m-883 -10 c8 0 14 -4 14 -10 0 -5 -13 -10 -30 -10 -21 0 -30 5 -30 16 0
11 5 14 16 10 9 -3 22 -6 30 -6z m279 0 c4 -6 -17 -10 -54 -10 -34 0 -61 4
-61 10 0 6 24 10 54 10 30 0 58 -4 61 -10z m125 -2 c0 -4 -25 -8 -55 -8 -30 0
-55 3 -55 8 0 4 25 7 55 8 30 0 55 -4 55 -8z m120 2 c0 -5 -25 -10 -55 -10
-30 0 -55 5 -55 10 0 6 25 10 55 10 30 0 55 -4 55 -10z m-380 -27 c0 -12 -7
-14 -31 -9 -17 3 -44 6 -60 6 -19 0 -27 4 -24 13 8 19 115 10 115 -10z m630
17 c0 -5 -16 -11 -35 -12 -41 -2 -70 -5 -147 -14 -41 -5 -58 -3 -58 5 0 6 15
11 33 12 56 1 141 10 146 15 9 8 61 4 61 -6z m-495 -19 c3 -5 2 -12 -3 -15
-14 -8 -122 6 -116 15 7 12 111 11 119 0z m125 -8 c0 -9 -18 -13 -55 -13 -37
0 -55 4 -55 13 0 8 18 12 55 12 37 0 55 -4 55 -12z m120 8 c0 -12 -85 -26 -99
-16 -6 3 -9 11 -6 16 8 12 105 12 105 0z m878 -53 c28 -28 7 -78 -33 -78 -27
0 -45 18 -45 45 0 27 18 45 45 45 12 0 26 -5 33 -12z m-521 -230 c-6 -235 -18
-329 -53 -418 -34 -89 -42 -94 -161 -119 -59 -13 -114 -26 -120 -28 -7 -3 2
28 21 69 43 95 63 178 77 324 10 109 9 170 -7 327 l-6 57 54 1 c29 0 73 4 98
8 25 5 58 9 74 10 l29 1 -6 -232z m-551 198 l292 -1 6 -65 c17 -185 0 -419
-40 -541 -12 -39 -20 -48 -46 -53 -76 -15 -308 6 -333 30 -21 22 -30 131 -30
382 0 127 -3 232 -7 232 -11 0 -13 -373 -4 -459 14 -123 19 -151 34 -163 28
-24 115 -36 239 -35 68 1 123 1 123 0 0 -20 -48 -93 -64 -97 -41 -10 -373 -66
-458 -76 -134 -18 -128 -27 -128 193 0 175 13 470 26 608 l6 66 46 -10 c26 -6
178 -11 338 -11z"/>
<path d="M1410 3243 c-23 -20 -50 -50 -61 -67 -21 -30 -20 -30 8 3 16 18 47
48 68 67 22 19 36 34 32 34 -4 0 -25 -16 -47 -37z"/>
<path d="M1305 3109 c-9 -17 -15 -33 -13 -35 3 -2 12 12 21 31 21 43 13 47 -8
4z"/>
<path d="M1262 2955 c0 -16 2 -22 5 -12 2 9 2 23 0 30 -3 6 -5 -1 -5 -18z"/>
<path d="M1617 3318 c-24 -19 -77 -89 -77 -102 0 -6 6 -2 12 9 19 34 59 79 82
92 11 7 16 12 10 13 -5 0 -18 -6 -27 -12z"/>
<path d="M1771 3316 c2 -2 15 -9 29 -15 24 -11 24 -11 6 3 -16 13 -49 24 -35
12z"/>
<path d="M1938 3293 c-10 -2 -18 -9 -18 -14 0 -14 16 -11 30 6 7 8 11 14 9 14
-2 -1 -12 -3 -21 -6z"/>
<path d="M1830 3286 c0 -2 7 -6 15 -10 8 -3 15 -1 15 4 0 6 -7 10 -15 10 -8 0
-15 -2 -15 -4z"/>
<path d="M1991 3264 c-25 -32 -25 -37 -5 -98 18 -52 61 -88 95 -79 28 8 59 51
59 82 0 36 -33 87 -69 106 -42 21 -56 19 -80 -11z m89 -23 c35 -34 46 -74 31
-107 -19 -43 -80 -25 -100 30 -20 52 -21 75 -5 90 23 23 42 20 74 -13z"/>
<path d="M1526 3183 c-6 -14 -5 -15 5 -6 7 7 10 15 7 18 -3 3 -9 -2 -12 -12z"/>
<path d="M1531 3034 c0 -11 3 -14 6 -6 3 7 2 16 -1 19 -3 4 -6 -2 -5 -13z"/>
<path d="M1540 3003 c0 -6 8 -17 18 -24 16 -13 16 -13 2 6 -8 11 -16 22 -17
24 -2 2 -3 0 -3 -6z"/>
<path d="M430 3317 c0 -14 34 -67 42 -67 4 0 8 3 8 8 -1 10 -50 69 -50 59z"/>
<path d="M510 3212 c0 -12 91 -112 102 -112 5 0 -12 27 -39 59 -45 56 -63 71
-63 53z"/>
<path d="M660 3132 c0 -6 -3 -17 -6 -26 -4 -11 -1 -16 10 -16 9 0 16 7 16 15
0 8 0 18 1 22 0 4 -4 9 -10 11 -6 2 -11 -1 -11 -6z"/>
<path d="M562 3065 c-7 -14 -12 -32 -12 -40 0 -18 -5 -18 -48 -6 -26 8 -32 7
-32 -6 0 -9 2 -14 6 -11 3 3 20 2 38 -2 35 -8 43 -1 60 53 6 20 35 22 58 5 15
-12 167 -238 177 -263 8 -19 122 -185 127 -185 6 0 15 -14 -140 225 -71 110
-134 210 -140 222 -20 40 -78 44 -94 8z"/>
<path d="M340 2765 c-7 -9 -11 -18 -8 -20 3 -3 11 1 18 10 7 9 11 18 8 20 -3
3 -11 -1 -18 -10z"/>
<path d="M610 2265 c-20 -24 -6 -28 15 -5 10 11 13 20 8 20 -6 0 -16 -7 -23
-15z"/>
<path d="M1711 2482 c-6 -12 -11 -27 -11 -34 1 -7 8 0 16 15 9 16 13 31 11 34
-3 2 -10 -4 -16 -15z"/>
<path d="M2540 2285 c0 -8 4 -15 10 -15 5 0 7 7 4 15 -4 8 -8 15 -10 15 -2 0
-4 -7 -4 -15z"/>
<path d="M1681 2180 c-7 -42 0 -166 14 -250 20 -119 20 -118 28 -126 10 -10 9
-5 -9 78 -8 40 -19 127 -23 193 -5 66 -9 113 -10 105z"/>
<path d="M2560 2179 c0 -24 4 -38 10 -34 6 3 10 22 10 41 0 19 -4 34 -10 34
-5 0 -10 -18 -10 -41z"/>
<path d="M1705 1690 c-4 -17 -5 -34 -2 -36 3 -3 8 9 12 26 4 17 5 34 2 36 -3
3 -8 -9 -12 -26z"/>
<path d="M1681 1574 c0 -11 3 -14 6 -6 3 7 2 16 -1 19 -3 4 -6 -2 -5 -13z"/>
<path d="M763 1590 c0 -30 2 -43 4 -27 2 15 2 39 0 55 -2 15 -4 2 -4 -28z"/>
<path d="M1676 1487 c-3 -13 -10 -68 -16 -123 -5 -54 -12 -119 -15 -143 -3
-25 -2 -41 2 -38 6 7 44 319 39 325 -2 2 -6 -8 -10 -21z"/>
<path d="M1988 1203 c6 -2 18 -2 25 0 6 3 1 5 -13 5 -14 0 -19 -2 -12 -5z"/>
<path d="M2697 514 c-54 -35 -177 -88 -284 -121 -51 -15 -93 -32 -93 -37 0 -4
8 -5 18 -1 9 4 22 8 27 9 86 18 339 129 365 161 17 20 12 18 -33 -11z"/>
<path d="M2771 1115 c0 -16 6 -43 14 -60 l14 -30 -6 40 c-3 22 -9 49 -14 60
-6 17 -8 15 -8 -10z"/>
<path d="M2170 333 c-14 -3 -29 -8 -34 -13 -7 -7 19 -4 89 13 16 4 14 5 -5 4
-14 0 -36 -2 -50 -4z"/>
<path d="M2088 313 c6 -2 18 -2 25 0 6 3 1 5 -13 5 -14 0 -19 -2 -12 -5z"/>
<path d="M1984 2588 l-19 -23 23 19 c21 18 27 26 19 26 -2 0 -12 -10 -23 -22z"/>
</g>
</svg>
