<?xml version="1.0" standalone="no"?>
<!DOCTYPE svg PUBLIC "-//W3C//DTD SVG 20010904//EN"
 "http://www.w3.org/TR/2001/REC-SVG-20010904/DTD/svg10.dtd">
<svg version="1.0" xmlns="http://www.w3.org/2000/svg"
 width="300.000000pt" height="192.000000pt" viewBox="0 0 300.000000 192.000000"
 preserveAspectRatio="xMidYMid meet">
<metadata>
Created by potrace 1.10, written by Peter Selinger 2001-2011
</metadata>
<g transform="translate(0.000000,192.000000) scale(0.100000,-0.100000)"
fill="#f9f4f4" stroke="none">
<path d="M1020 1894 c-164 -35 -465 -159 -586 -241 -174 -119 -321 -301 -390
-484 -25 -67 -28 -86 -29 -204 0 -119 2 -137 29 -208 58 -160 194 -339 338
-448 145 -109 450 -243 647 -285 52 -11 200 -14 706 -14 l640 -1 3 51 3 50 62
0 c62 0 62 0 107 -51 l45 -50 198 -2 197 -2 0 585 c0 322 3 750 7 953 l6 367
-205 0 -206 0 -47 -55 -47 -56 -57 3 -56 3 -3 53 -3 52 -647 -1 c-513 0 -661
-3 -712 -15z m1962 -144 c2 -80 2 -170 2 -200 -1 -30 -2 -381 -3 -779 -1 -398
-5 -729 -8 -737 -4 -11 -40 -14 -178 -14 l-173 0 -61 63 c-46 46 -61 68 -58
84 2 13 0 23 -4 23 -5 0 -9 -11 -9 -25 0 -21 -5 -25 -27 -24 -48 2 -62 9 -66
32 -2 13 -5 6 -6 -16 -1 -51 -21 -38 -22 16 -1 25 -5 7 -10 -43 -5 -47 -11
-91 -14 -98 -4 -10 -117 -12 -577 -9 -315 2 -593 6 -618 10 -25 3 -64 8 -88
12 -136 19 -401 123 -572 223 -192 113 -351 305 -427 514 -60 165 -25 379 92
553 135 201 317 340 580 440 167 63 193 72 250 84 33 7 72 16 87 20 15 5 308
10 652 10 477 2 626 -1 632 -10 13 -21 15 -60 15 -264 1 -198 14 -428 18 -305
2 47 7 61 36 94 28 32 37 37 49 27 8 -7 17 -27 19 -44 3 -28 4 -27 5 9 1 22 5
43 8 46 7 7 6 296 -1 323 -4 15 2 24 25 38 37 20 52 22 49 5 -1 -7 1 -21 6
-31 7 -16 5 -63 -11 -238 -4 -44 -3 -56 9 -56 11 0 16 25 21 111 9 158 8 208
-4 201 -5 -3 -10 2 -11 12 -2 25 2 77 6 83 2 3 89 5 194 5 l191 0 2 -145z
m-490 -137 c2 -93 2 -170 0 -173 -2 -3 -10 3 -17 13 -12 17 -16 15 -49 -29
l-36 -47 0 81 c0 44 3 82 8 84 4 2 5 54 2 116 -3 63 -3 116 -1 118 2 2 24 4
47 4 l43 0 3 -167z"/>
<path d="M1270 1756 c0 -2 9 -6 20 -9 11 -3 20 -1 20 4 0 5 -9 9 -20 9 -11 0
-20 -2 -20 -4z"/>
<path d="M1030 1640 c0 -5 7 -10 16 -10 8 0 12 5 9 10 -3 6 -10 10 -16 10 -5
0 -9 -4 -9 -10z"/>
<path d="M805 1483 c-104 -69 -196 -126 -202 -126 -7 0 -13 -4 -13 -9 0 -5
-10 -12 -22 -17 -52 -20 -348 -208 -308 -196 14 4 44 10 67 12 35 4 43 2 53
-17 11 -20 10 -21 -9 -10 -32 16 -25 4 11 -21 18 -13 28 -17 24 -8 -4 7 1 4
11 -7 26 -31 70 -51 143 -64 113 -20 221 8 302 78 19 18 39 28 44 24 5 -4 6
-3 2 1 -3 5 4 24 17 43 41 61 45 233 8 327 l-16 39 44 39 c24 21 42 38 39 39
-3 0 -90 -57 -195 -127z m113 -24 c8 -28 12 -79 10 -139 -3 -85 -7 -102 -34
-150 -56 -99 -167 -150 -299 -136 -69 7 -156 46 -185 83 -27 34 -25 47 7 68
26 17 27 17 44 -4 63 -78 179 -6 182 113 1 41 1 42 121 128 67 48 125 86 131
84 5 -1 16 -22 23 -47z m-288 -134 c0 -3 -17 -16 -39 -30 -26 -17 -41 -36 -45
-56 -4 -20 -11 -29 -25 -29 -11 0 -22 4 -25 8 -7 11 48 63 94 91 38 23 40 23
40 16z m-20 -55 c0 -36 -43 -100 -67 -100 -10 0 -7 9 11 31 14 17 26 41 26 53
0 13 3 26 7 29 12 13 23 7 23 -13z m-124 -29 c-8 -13 -137 -83 -143 -78 -3 4
133 85 145 87 2 0 1 -4 -2 -9z"/>
<path d="M1430 1471 c-25 -3 -64 -6 -86 -6 -31 1 -40 -3 -37 -13 10 -25 53
-34 81 -16 13 9 21 11 18 5 -4 -6 0 -11 8 -11 9 0 16 5 16 12 0 9 3 9 11 1 8
-8 20 -8 35 -3 14 6 26 6 29 0 4 -6 21 -9 38 -9 l32 1 -30 8 c-21 5 -24 8 -10
10 11 1 29 3 39 5 11 2 23 2 28 -1 4 -3 170 -5 367 -6 284 0 358 -3 355 -13
-3 -7 1 -15 9 -18 10 -4 14 3 13 26 l-1 32 -435 1 c-239 0 -455 -2 -480 -5z"/>
<path d="M2614 1447 c-8 -36 3 -48 22 -22 13 18 27 20 143 21 70 0 133 4 139
8 7 4 17 4 22 1 6 -3 10 -1 10 4 0 13 -8 13 -192 15 l-137 2 -7 -29z"/>
<path d="M1058 1458 c5 -5 16 -8 23 -6 8 3 3 7 -10 11 -17 4 -21 3 -13 -5z"/>
<path d="M1170 1455 c0 -8 2 -15 4 -15 2 0 6 7 10 15 3 8 1 15 -4 15 -6 0 -10
-7 -10 -15z"/>
<path d="M1202 1451 c2 -11 15 -16 40 -17 22 -1 35 3 31 9 -3 5 -1 12 5 16 5
3 -10 6 -34 7 -36 1 -44 -2 -42 -15z"/>
<path d="M1135 1450 c-3 -5 -2 -10 4 -10 5 0 13 5 16 10 3 6 2 10 -4 10 -5 0
-13 -4 -16 -10z"/>
<path d="M2265 1430 c-3 -5 -1 -10 4 -10 6 0 11 5 11 10 0 6 -2 10 -4 10 -3 0
-8 -4 -11 -10z"/>
<path d="M2551 1424 c0 -11 3 -14 6 -6 3 7 2 16 -1 19 -3 4 -6 -2 -5 -13z"/>
<path d="M2058 1423 c6 -2 18 -2 25 0 6 3 1 5 -13 5 -14 0 -19 -2 -12 -5z"/>
<path d="M2516 1403 c-3 -4 -6 -14 -6 -24 0 -21 25 -16 34 6 5 14 -17 28 -28
18z"/>
<path d="M2610 1379 c0 -5 5 -7 10 -4 6 3 10 8 10 11 0 2 -4 4 -10 4 -5 0 -10
-5 -10 -11z"/>
<path d="M2381 1224 c0 -11 3 -14 6 -6 3 7 2 16 -1 19 -3 4 -6 -2 -5 -13z"/>
<path d="M1685 1206 c-123 -57 -192 -202 -150 -316 24 -65 28 -89 10 -55 -20
37 -74 76 -137 100 -74 27 -176 5 -227 -49 -14 -14 -34 -26 -45 -26 -28 0 -81
-34 -101 -64 -15 -22 -16 -40 -13 -141 0 -16 -3 -47 -7 -67 -6 -28 -3 -46 12
-75 14 -26 18 -50 15 -77 -10 -86 47 -136 162 -141 152 -6 270 36 358 126 34
35 80 65 158 104 152 75 250 146 250 180 0 6 21 51 46 100 62 119 69 187 30
266 -35 69 -69 105 -128 135 -65 33 -163 33 -233 0z m226 -24 c125 -65 173
-206 112 -332 -19 -40 -27 -50 -30 -35 -2 11 -8 44 -14 72 -6 29 -10 56 -9 59
1 4 -3 10 -9 14 -6 3 -21 26 -34 50 -27 54 -61 80 -114 87 -46 6 -115 -24
-134 -58 -18 -35 -31 -147 -18 -170 13 -24 12 -25 -24 -34 -21 -6 -27 -4 -27
10 0 9 -4 14 -9 11 -16 -10 -31 99 -18 134 21 61 16 71 -8 14 -23 -55 -20 -81
21 -179 7 -18 6 -19 -9 -6 -10 7 -24 38 -33 68 -29 98 -1 189 80 260 53 47 90
61 167 62 44 1 69 -5 110 -27z m-26 -144 c44 -48 90 -191 81 -254 -13 -95 -56
-135 -256 -237 -79 -40 -132 -75 -170 -112 -90 -87 -167 -115 -318 -115 -91 0
-94 1 -124 30 -27 27 -29 36 -26 83 2 37 -2 59 -15 77 -20 29 -22 85 -3 119
11 20 11 28 -2 50 -18 33 -10 93 18 121 10 10 38 24 62 30 24 7 54 23 67 37
86 91 274 57 321 -57 15 -37 29 -37 118 -4 l69 25 -13 37 c-18 50 -17 117 1
152 36 69 135 79 190 18z"/>
<path d="M1607 1006 c-8 -21 8 -40 20 -24 8 9 7 16 -2 25 -10 9 -14 9 -18 -1z"/>
<path d="M1619 539 c-19 -16 -20 -18 -4 -10 34 17 51 31 39 31 -7 0 -22 -9
-35 -21z"/>
<path d="M1460 420 c-9 -6 -10 -10 -3 -10 6 0 15 5 18 10 8 12 4 12 -15 0z"/>
<path d="M2501 1184 c0 -11 3 -14 6 -6 3 7 2 16 -1 19 -3 4 -6 -2 -5 -13z"/>
<path d="M2380 1124 c-6 -50 0 -78 19 -82 11 -2 12 0 3 10 -6 8 -12 36 -14 63
l-3 50 -5 -41z"/>
<path d="M2496 1108 c-11 -97 -1 -896 11 -884 3 2 3 82 2 178 -2 95 -2 305 0
466 1 160 1 292 -2 292 -2 0 -7 -24 -11 -52z"/>
<path d="M2588 643 c-2 -274 -1 -509 2 -523 10 -39 22 696 14 865 -3 83 -8
151 -9 153 -1 2 -5 -221 -7 -495z"/>
<path d="M2393 895 c0 -22 2 -30 4 -17 2 12 2 30 0 40 -3 9 -5 -1 -4 -23z"/>
<path d="M2361 904 c0 -11 3 -14 6 -6 3 7 2 16 -1 19 -3 4 -6 -2 -5 -13z"/>
<path d="M2363 805 c0 -44 2 -61 4 -37 2 23 2 59 0 80 -2 20 -4 1 -4 -43z"/>
<path d="M2392 780 c0 -19 2 -27 5 -17 2 9 2 25 0 35 -3 9 -5 1 -5 -18z"/>
<path d="M2393 685 c0 -33 2 -45 4 -27 2 18 2 45 0 60 -2 15 -4 0 -4 -33z"/>
<path d="M2364 620 c0 -58 1 -81 3 -52 2 28 2 76 0 105 -2 28 -3 5 -3 -53z"/>
<path d="M2384 325 c0 -72 1 -99 3 -62 2 37 2 96 0 130 -2 34 -3 4 -3 -68z"/>
<path d="M2363 310 c0 -47 2 -66 4 -42 2 23 2 61 0 85 -2 23 -4 4 -4 -43z"/>
</g>
</svg>
