<?xml version="1.0" standalone="no"?>
<!DOCTYPE svg PUBLIC "-//W3C//DTD SVG 20010904//EN"
 "http://www.w3.org/TR/2001/REC-SVG-20010904/DTD/svg10.dtd">
<svg version="1.0" xmlns="http://www.w3.org/2000/svg"
 width="300.000000pt" height="86.000000pt" viewBox="0 0 300.000000 86.000000"
 preserveAspectRatio="xMidYMid meet">
<metadata>
Created by potrace 1.10, written by Peter Selinger 2001-2011
</metadata>
<g transform="translate(0.000000,86.000000) scale(0.100000,-0.100000)"
fill="#fbfbfb" stroke="none">
<path d="M340 735 c-105 -13 -164 -40 -224 -100 -51 -52 -54 -64 -27 -115 16
-29 25 -35 53 -35 27 0 34 -4 36 -24 3 -18 -9 -35 -47 -71 l-51 -48 1 -76 c1
-42 5 -78 9 -81 15 -9 224 -20 367 -19 78 0 140 -3 137 -8 -3 -4 0 -8 6 -8 7
0 9 7 6 16 -3 9 -6 50 -6 91 0 73 -1 75 -22 69 -13 -4 -45 -9 -72 -13 l-49 -6
43 54 c60 76 83 131 82 201 -1 62 -26 132 -59 161 -26 23 -77 26 -183 12z
m151 -26 c49 -24 69 -66 69 -143 0 -43 -8 -70 -40 -134 -22 -44 -54 -92 -70
-105 -44 -37 -22 -49 63 -33 l67 13 0 -57 0 -57 -37 -7 c-48 -7 -172 -6 -238
2 l-50 7 -1 47 c-2 46 -1 48 47 79 59 37 105 89 130 143 23 52 24 68 1 96 -28
35 -83 21 -119 -29 l-27 -38 -42 29 c-23 15 -45 35 -48 44 -14 36 75 114 167
145 67 23 79 23 128 -2z m-206 -9 c-3 -5 -14 -10 -23 -10 -15 0 -15 2 -2 10
20 13 33 13 25 0z m-42 -31 c-8 -8 -16 -8 -30 0 -16 9 -14 10 12 11 21 0 26
-3 18 -11z m-29 -18 c4 -5 -3 -7 -14 -4 -23 6 -26 13 -6 13 8 0 17 -4 20 -9z
m-19 -21 c4 -6 -5 -10 -19 -10 -14 0 -26 5 -26 10 0 6 9 10 19 10 11 0 23 -4
26 -10z m-15 -30 c0 -12 -8 -12 -35 0 -18 8 -17 9 8 9 15 1 27 -3 27 -9z m-30
-30 l25 -8 -25 0 c-14 0 -34 3 -45 8 -20 9 -20 9 0 8 11 0 31 -4 45 -8z m46
-38 c-8 -7 -96 8 -96 17 0 5 23 4 50 -2 28 -5 48 -12 46 -15z m229 8 c7 -12
-22 -12 -50 0 -17 7 -15 9 12 9 17 1 35 -3 38 -9z m0 -31 c11 -11 -48 -1 -80
13 -13 5 -4 6 25 2 25 -3 49 -10 55 -15z m-208 -5 c-3 -3 -12 -4 -19 -1 -8 3
-5 6 6 6 11 1 17 -2 13 -5z m203 -24 c0 -4 -17 -4 -37 1 -51 11 -76 11 -68 -1
3 -5 19 -10 35 -10 35 0 62 -9 55 -20 -4 -6 -104 8 -114 16 -2 2 3 12 13 22
14 17 23 18 66 9 28 -5 50 -13 50 -17z m-193 -6 c-3 -3 -12 -4 -19 -1 -8 3 -5
6 6 6 11 1 17 -2 13 -5z m47 -3 c4 -5 -3 -7 -14 -4 -23 6 -26 13 -6 13 8 0 17
-4 20 -9z m28 -27 l90 -17 -29 -29 c-24 -24 -33 -27 -54 -20 -13 5 -48 13 -77
17 -33 4 -51 11 -49 19 4 11 8 11 117 2 79 -8 52 8 -32 18 -32 4 -60 12 -63
17 -8 12 -8 12 97 -7z m-39 -71 c31 -3 57 -10 57 -15 0 -6 -18 -7 -42 -3 -61
9 -118 25 -118 32 0 3 10 3 23 -1 12 -3 48 -9 80 -13z m-40 -23 c31 -7 57 -17
57 -22 0 -9 -23 -5 -98 17 -23 7 -44 9 -47 4 -3 -4 7 -11 22 -15 61 -14 87
-22 70 -23 -18 -1 -108 19 -116 25 -10 9 33 43 43 35 6 -5 37 -14 69 -21z
m-97 -39 c-3 -5 19 -12 49 -16 30 -3 55 -10 55 -14 0 -5 -21 -4 -47 1 -27 5
-56 10 -65 11 -22 2 -24 27 -2 27 8 0 13 -4 10 -9z m54 -42 c27 -6 50 -14 50
-18 0 -8 -120 16 -129 25 -8 7 26 4 79 -7z m48 -43 c8 -9 -22 -7 -78 5 -27 6
-50 14 -50 18 0 8 118 -14 128 -23z m-63 -26 c16 -7 13 -9 -17 -9 -20 -1 -40
4 -43 9 -7 12 32 12 60 0z m58 3 c-7 -2 -19 -2 -25 0 -7 3 -2 5 12 5 14 0 19
-2 13 -5z"/>
<path d="M460 629 c0 -11 5 -17 10 -14 6 3 10 13 10 21 0 8 -4 14 -10 14 -5 0
-10 -9 -10 -21z"/>
<path d="M230 590 c0 -5 5 -10 10 -10 6 0 10 5 10 10 0 6 -4 10 -10 10 -5 0
-10 -4 -10 -10z"/>
<path d="M450 480 c0 -5 5 -10 10 -10 6 0 10 5 10 10 0 6 -4 10 -10 10 -5 0
-10 -4 -10 -10z"/>
<path d="M320 285 c0 -8 5 -15 10 -15 6 0 10 7 10 15 0 8 -4 15 -10 15 -5 0
-10 -7 -10 -15z"/>
<path d="M290 240 c0 -5 7 -10 15 -10 8 0 15 5 15 10 0 6 -7 10 -15 10 -8 0
-15 -4 -15 -10z"/>
<path d="M1160 739 c-201 -23 -311 -152 -297 -348 7 -90 8 -97 30 -137 23 -44
71 -82 115 -90 64 -12 312 20 374 49 73 33 124 85 141 145 l15 47 7 -60 c13
-96 69 -167 143 -181 64 -12 313 20 374 49 73 33 124 85 141 145 l14 47 8 -63
c12 -109 88 -182 185 -182 105 1 281 29 333 53 107 50 157 133 157 261 -1 78
-24 129 -84 184 -69 64 -125 86 -216 85 -199 -1 -328 -78 -366 -220 -11 -40
-13 -43 -14 -18 -1 48 -33 107 -84 153 -69 64 -125 86 -216 85 -195 -1 -314
-69 -361 -206 -13 -37 -19 -45 -19 -27 -1 43 -35 103 -84 148 -83 76 -159 97
-296 81z m177 -34 c62 -18 139 -84 164 -140 38 -83 16 -214 -47 -279 -55 -56
-112 -78 -226 -84 -112 -5 -136 -1 -177 34 -32 27 -72 103 -71 138 0 12 0 44
0 71 -1 56 21 97 95 177 84 90 158 114 262 83z m680 0 c67 -20 146 -90 169
-150 33 -87 3 -219 -64 -283 -50 -46 -109 -64 -223 -70 -114 -5 -144 3 -185
50 -32 37 -68 124 -59 145 4 10 7 36 6 58 -2 45 29 101 96 170 84 88 157 110
260 80z m683 -1 c39 -12 66 -29 106 -68 62 -63 79 -112 70 -200 -16 -155 -127
-236 -323 -236 -116 0 -154 23 -198 117 -21 47 -23 61 -16 122 8 78 32 121
114 202 74 74 147 93 247 63z m-1605 -34 c-3 -5 -27 -10 -53 -9 -35 0 -42 3
-27 9 28 12 88 12 80 0z m680 0 c-3 -5 -27 -10 -53 -9 -35 0 -42 3 -27 9 28
12 88 12 80 0z m680 0 c-3 -5 -27 -10 -53 -9 -35 0 -42 3 -27 9 28 12 88 12
80 0z m-1387 -25 c-3 -3 -31 -7 -63 -9 -34 -2 -52 0 -44 5 15 9 116 13 107 4z
m680 0 c-3 -3 -32 -8 -64 -10 -40 -3 -54 -1 -44 5 16 10 118 14 108 5z m679
-1 c-3 -4 -31 -7 -62 -9 -34 -1 -52 1 -43 6 15 10 115 12 105 3z m-1387 -32
c0 -4 -25 -8 -55 -8 -30 0 -55 4 -55 8 0 4 25 8 55 8 30 0 55 -4 55 -8z m680
0 c0 -4 -25 -8 -55 -8 -30 0 -55 4 -55 8 0 4 25 8 55 8 30 0 55 -4 55 -8z
m677 1 c-10 -10 -107 -11 -107 -1 0 4 26 8 57 8 31 0 53 -3 50 -7z m-1387 -37
c-8 -7 -36 -16 -62 -19 -44 -4 -47 -3 -37 14 7 15 21 19 61 19 45 0 50 -2 38
-14z m680 0 c-8 -7 -36 -16 -62 -19 -44 -4 -47 -3 -37 14 7 15 21 19 61 19 45
0 50 -2 38 -14z m680 0 c-8 -7 -36 -16 -61 -18 -42 -5 -46 -3 -42 13 4 16 15
19 61 19 48 0 54 -2 42 -14z m-1386 -41 c-4 -10 -20 -15 -50 -15 -59 0 -56 18
4 23 26 2 48 4 49 5 1 1 0 -5 -3 -13z m680 0 c-4 -10 -20 -15 -50 -15 -59 0
-56 18 4 23 26 2 48 4 49 5 1 1 0 -5 -3 -13z m680 0 c-4 -10 -20 -15 -50 -15
-59 0 -56 18 4 23 26 2 48 4 49 5 1 1 0 -5 -3 -13z m-1380 -34 c3 -5 -13 -11
-37 -13 -47 -5 -52 -4 -42 11 8 13 72 15 79 2z m680 0 c3 -5 -13 -11 -37 -13
-47 -5 -52 -4 -42 11 8 13 72 15 79 2z m680 0 c3 -5 -13 -11 -37 -13 -47 -5
-52 -4 -42 11 8 13 72 15 79 2z m-1369 -41 c-3 -5 -22 -10 -41 -10 -19 0 -34
5 -34 10 0 6 18 10 41 10 24 0 38 -4 34 -10z m675 0 c-20 -13 -70 -13 -70 0 0
6 19 10 43 10 31 0 38 -3 27 -10z m685 0 c-3 -5 -22 -10 -41 -10 -19 0 -34 5
-34 10 0 6 18 10 41 10 24 0 38 -4 34 -10z m-1355 -29 c0 -5 -18 -11 -40 -13
-38 -3 -54 5 -27 15 21 9 67 7 67 -2z m680 0 c0 -9 -81 -21 -90 -14 -2 2 2 8
10 13 19 12 80 13 80 1z m680 -1 c0 -5 -13 -10 -29 -10 -16 0 -36 -3 -45 -6
-9 -3 -16 -1 -16 4 0 12 22 19 63 21 15 0 27 -3 27 -9z m-1370 -52 c0 -7 3
-23 6 -34 5 -17 0 -23 -22 -28 -31 -8 -44 5 -44 47 0 23 4 27 30 27 17 0 30
-5 30 -12z m680 -5 c0 -10 3 -28 6 -40 6 -20 3 -23 -24 -23 -35 0 -37 2 -47
48 -6 31 -6 32 29 32 28 0 36 -4 36 -17z m680 -2 c0 -11 3 -26 6 -34 3 -10 -4
-17 -22 -21 -32 -8 -42 -1 -50 42 -6 31 -6 32 30 32 29 0 36 -4 36 -19z
m-1320 -88 c0 -5 -20 -9 -45 -10 -25 -1 -45 2 -45 7 0 6 20 10 45 10 25 0 45
-3 45 -7z m680 0 c0 -5 -20 -9 -45 -10 -25 -1 -45 2 -45 7 0 6 20 10 45 10 25
0 45 -3 45 -7z m680 0 c0 -5 -20 -9 -45 -10 -25 -1 -45 3 -45 8 0 5 20 9 45 9
25 0 45 -3 45 -7z m-1346 -32 c7 -10 -79 -9 -90 2 -4 4 13 7 39 7 25 0 48 -4
51 -9z m680 0 c7 -10 -79 -9 -90 2 -4 4 13 7 39 7 25 0 48 -4 51 -9z m680 0
c6 -10 -80 -8 -90 2 -4 4 13 7 39 7 25 0 48 -4 51 -9z m-1329 -31 c4 -6 -9
-11 -29 -11 -20 -1 -41 -2 -48 -3 -6 -1 -13 5 -15 12 -6 15 83 17 92 2z m680
0 c4 -6 -7 -11 -24 -12 -17 -1 -38 -2 -48 -2 -9 -1 -18 5 -20 12 -6 15 83 17
92 2z m680 0 c4 -6 -9 -11 -29 -11 -20 -1 -41 -2 -48 -3 -6 -1 -13 5 -15 12
-6 15 83 17 92 2z m-1305 -30 c13 -8 13 -10 -2 -10 -9 0 -20 5 -23 10 -8 13 5
13 25 0z m680 0 c13 -8 13 -10 -2 -10 -9 0 -20 5 -23 10 -8 13 5 13 25 0z
m680 0 c13 -8 13 -10 -2 -10 -9 0 -20 5 -23 10 -8 13 5 13 25 0z"/>
<path d="M1190 516 c-14 -8 -32 -27 -41 -43 -9 -16 -23 -27 -33 -25 -9 2 -16
-1 -16 -6 0 -14 34 -25 38 -12 3 8 8 7 18 -1 18 -15 68 -5 105 22 23 16 29 28
27 48 -3 22 -8 26 -38 28 -19 2 -46 -4 -60 -11z m32 -28 c-24 -11 -46 -17 -49
-14 -7 6 56 34 77 34 8 0 -5 -9 -28 -20z"/>
<path d="M1110 491 c0 -6 5 -13 10 -16 6 -3 10 1 10 9 0 9 -4 16 -10 16 -5 0
-10 -4 -10 -9z"/>
<path d="M1430 330 c0 -5 5 -10 10 -10 6 0 10 5 10 10 0 6 -4 10 -10 10 -5 0
-10 -4 -10 -10z"/>
<path d="M1350 300 c0 -5 7 -10 15 -10 8 0 15 5 15 10 0 6 -7 10 -15 10 -8 0
-15 -4 -15 -10z"/>
<path d="M1370 260 c0 -5 5 -10 10 -10 6 0 10 5 10 10 0 6 -4 10 -10 10 -5 0
-10 -4 -10 -10z"/>
<path d="M1870 516 c-14 -8 -32 -27 -41 -43 -9 -16 -23 -27 -33 -25 -9 2 -16
-1 -16 -6 0 -14 34 -25 38 -13 2 7 9 7 21 -1 21 -13 54 -6 99 22 27 16 33 26
30 48 -3 23 -8 27 -38 29 -19 2 -46 -4 -60 -11z m32 -28 c-24 -11 -46 -17 -49
-14 -7 6 56 34 77 34 8 0 -5 -9 -28 -20z"/>
<path d="M1790 491 c0 -6 5 -13 10 -16 6 -3 10 1 10 9 0 9 -4 16 -10 16 -5 0
-10 -4 -10 -9z"/>
<path d="M2100 330 c0 -5 7 -10 15 -10 8 0 15 5 15 10 0 6 -7 10 -15 10 -8 0
-15 -4 -15 -10z"/>
<path d="M2030 300 c0 -5 7 -10 15 -10 8 0 15 5 15 10 0 6 -7 10 -15 10 -8 0
-15 -4 -15 -10z"/>
<path d="M2050 260 c0 -5 5 -10 10 -10 6 0 10 5 10 10 0 6 -4 10 -10 10 -5 0
-10 -4 -10 -10z"/>
<path d="M2550 516 c-14 -8 -32 -27 -41 -43 -9 -16 -23 -27 -33 -25 -9 2 -16
-1 -16 -6 0 -14 34 -25 38 -13 2 7 9 7 21 -1 21 -13 54 -6 99 22 27 16 33 26
30 48 -3 23 -8 27 -38 29 -19 2 -46 -4 -60 -11z m32 -28 c-24 -11 -46 -17 -49
-14 -7 6 56 34 77 34 8 0 -5 -9 -28 -20z m33 -8 c-3 -5 -12 -10 -18 -10 -7 0
-6 4 3 10 19 12 23 12 15 0z"/>
<path d="M2470 491 c0 -6 5 -13 10 -16 6 -3 10 1 10 9 0 9 -4 16 -10 16 -5 0
-10 -4 -10 -9z"/>
<path d="M2780 330 c0 -5 7 -10 15 -10 8 0 15 5 15 10 0 6 -7 10 -15 10 -8 0
-15 -4 -15 -10z"/>
<path d="M2710 300 c0 -5 7 -10 15 -10 8 0 15 5 15 10 0 6 -7 10 -15 10 -8 0
-15 -4 -15 -10z"/>
<path d="M2730 260 c0 -5 5 -10 10 -10 6 0 10 5 10 10 0 6 -4 10 -10 10 -5 0
-10 -4 -10 -10z"/>
<path d="M674 300 c-26 -10 -54 -48 -54 -71 0 -10 12 -27 26 -38 26 -20 26
-22 10 -40 -22 -25 -13 -29 72 -37 l70 -7 31 43 c21 29 31 55 31 80 0 59 -17
72 -96 76 -38 2 -79 -1 -90 -6z m164 -57 c4 -38 -20 -88 -49 -104 -25 -13 -36
-5 -20 15 16 20 6 36 -23 36 -32 0 -50 40 -30 68 16 23 45 30 89 22 25 -5 31
-11 33 -37z m-148 18 c0 -10 -30 -24 -37 -17 -3 3 -2 9 2 15 8 13 35 15 35 2z
m-17 -38 c-7 -2 -19 -2 -25 0 -7 3 -2 5 12 5 14 0 19 -2 13 -5z m77 -75 c0 -5
-12 -7 -27 -4 -16 2 -32 5 -38 5 -5 1 -4 5 3 10 16 10 62 2 62 -11z"/>
<path d="M730 221 c0 -10 42 -23 49 -15 7 6 -20 24 -36 24 -7 0 -13 -4 -13 -9z"/>
<path d="M806 104 c-11 -8 -16 -14 -10 -14 13 0 39 18 34 24 -3 2 -14 -2 -24
-10z"/>
</g>
</svg>
