<?xml version="1.0" standalone="no"?>
<!DOCTYPE svg PUBLIC "-//W3C//DTD SVG 20010904//EN"
 "http://www.w3.org/TR/2001/REC-SVG-20010904/DTD/svg10.dtd">
<svg version="1.0" xmlns="http://www.w3.org/2000/svg"
 width="300.000000pt" height="300.000000pt" viewBox="0 0 300.000000 300.000000"
 preserveAspectRatio="xMidYMid meet">
<metadata>
Created by potrace 1.10, written by Peter Selinger 2001-2011
</metadata>
<g transform="translate(0.000000,300.000000) scale(0.100000,-0.100000)"
fill="#ffffff" stroke="none">
<path d="M2810 2985 c-36 -7 -485 -99 -999 -204 -514 -105 -938 -191 -943
-191 -4 0 -8 -398 -8 -885 l0 -885 -28 7 c-15 4 -67 7 -117 7 -177 -2 -340
-68 -463 -190 -163 -161 -183 -356 -51 -499 74 -80 197 -135 302 -135 65 1 48
12 -50 33 -137 31 -242 104 -283 199 -19 44 -22 65 -18 137 6 108 27 152 117
242 122 122 290 183 490 178 92 -3 105 -1 117 16 12 16 14 163 14 882 0 475 1
863 3 863 1 0 398 81 882 180 484 99 891 183 905 186 14 2 50 9 80 15 30 6 63
13 73 15 16 5 17 -49 15 -1113 l-3 -1118 -24 -50 c-35 -71 -141 -173 -228
-218 -270 -141 -620 -83 -718 118 -24 49 -27 63 -23 142 4 110 28 162 114 248
119 119 276 178 475 179 83 1 121 5 132 15 16 12 17 67 17 606 0 550 -1 594
-17 614 l-18 21 -685 -140 c-449 -92 -689 -145 -700 -155 -13 -14 -15 -114
-18 -863 l-3 -847 -31 -65 c-64 -133 -214 -238 -403 -281 -131 -30 -145 -40
-50 -35 198 10 396 138 481 312 l39 78 0 843 c0 464 2 843 4 843 8 0 1335 271
1354 276 16 5 17 -28 17 -594 l0 -599 -99 5 c-475 23 -826 -426 -548 -701 87
-87 202 -127 361 -127 188 0 349 63 472 185 80 79 119 150 134 241 12 70 14
2224 3 2223 -5 0 -37 -7 -73 -14z"/>
</g>
</svg>
