<?xml version="1.0" standalone="no"?>
<!DOCTYPE svg PUBLIC "-//W3C//DTD SVG 20010904//EN"
 "http://www.w3.org/TR/2001/REC-SVG-20010904/DTD/svg10.dtd">
<svg version="1.0" xmlns="http://www.w3.org/2000/svg"
 width="300.000000pt" height="176.000000pt" viewBox="0 0 300.000000 176.000000"
 preserveAspectRatio="xMidYMid meet">
<metadata>
Created by potrace 1.10, written by Peter Selinger 2001-2011
</metadata>
<g transform="translate(0.000000,176.000000) scale(0.100000,-0.100000)"
fill="#000000" stroke="none">
<path d="M1838 1726 c-16 -12 -16 -14 8 -24 14 -7 48 -12 77 -12 29 0 86 -8
127 -18 85 -20 136 -20 178 2 74 38 63 69 -22 58 -66 -9 -192 -9 -281 0 -51 5
-75 4 -87 -6z m365 -33 c-9 -7 -31 -13 -49 -13 -18 0 -41 -3 -51 -7 -17 -6
-17 -5 -1 13 12 14 30 19 67 19 43 0 49 -2 34 -12z"/>
<path d="M626 1634 c-3 -9 -6 -30 -6 -48 0 -24 7 -36 28 -48 25 -15 30 -26 40
-94 7 -43 18 -84 24 -91 15 -18 122 -73 143 -73 8 0 15 9 15 20 0 14 -17 28
-60 50 -44 22 -61 37 -65 55 -3 14 -7 36 -10 49 -3 14 1 29 11 37 13 10 24 8
69 -14 53 -26 53 -26 60 -82 11 -82 -2 -172 -33 -228 -23 -43 -29 -47 -51 -42
-129 32 -231 30 -344 -10 -390 -135 -505 -636 -212 -929 73 -73 156 -119 261
-146 311 -80 621 116 689 435 18 88 18 132 0 220 -28 134 -126 287 -221 346
-31 19 -34 24 -28 55 11 59 10 66 -13 75 -20 7 -26 3 -43 -31 -11 -22 -25 -40
-30 -40 -6 0 -10 -6 -10 -12 0 -21 -73 -167 -81 -163 -4 3 -6 -1 -5 -8 1 -15
-116 -257 -125 -257 -11 0 -25 47 -59 188 -18 73 -34 131 -37 129 -2 -3 10
-60 27 -127 17 -67 29 -124 28 -126 -2 -1 -50 58 -106 132 l-102 135 56 25
c31 14 63 23 70 20 7 -3 14 -1 16 4 2 6 31 13 66 16 l62 7 0 -146 c0 -80 4
-148 8 -151 5 -3 7 63 4 146 l-5 151 39 -7 c21 -4 50 -10 64 -12 24 -5 24 -5
6 10 -10 8 -43 18 -73 22 -228 28 -456 -117 -530 -336 -24 -73 -24 -223 0
-301 39 -130 157 -254 289 -305 65 -26 85 -29 184 -29 65 0 121 5 135 12 13 6
40 16 59 22 34 11 127 74 161 110 40 42 89 127 111 188 45 133 23 307 -54 415
-43 61 -110 128 -127 128 -8 0 -12 -3 -8 -6 3 -4 -7 -27 -24 -53 -17 -25 -22
-37 -12 -25 10 11 25 30 33 43 l15 22 48 -49 48 -49 -115 -72 c-64 -40 -116
-75 -116 -77 0 -6 2 -5 118 68 51 32 99 61 107 65 20 7 72 -104 86 -186 6 -34
10 -63 8 -65 -2 -2 -51 0 -109 5 -58 4 -132 7 -165 7 -33 0 13 -6 102 -12 89
-7 165 -15 169 -18 5 -6 -4 -70 -19 -133 -3 -11 -17 -46 -33 -77 l-27 -56
-133 111 c-73 61 -132 113 -130 114 2 2 69 -17 151 -42 81 -26 149 -44 151
-42 7 7 -297 97 -307 91 -5 -3 -9 0 -9 5 0 6 -6 11 -13 11 -8 0 -22 8 -31 19
-16 18 -16 19 8 25 52 13 357 119 353 122 -2 2 -77 -21 -166 -51 -191 -65
-200 -66 -176 -27 10 15 27 35 39 45 11 10 15 16 9 12 -7 -3 -13 -4 -13 -1 0
11 51 106 60 111 6 3 10 15 10 26 0 11 4 18 9 14 5 -3 13 0 17 6 4 8 3 9 -4 5
-18 -11 -15 -2 28 85 l41 80 39 -31 c249 -197 268 -567 41 -790 -107 -105
-218 -150 -372 -150 -145 0 -265 49 -367 150 -104 103 -155 227 -155 375 -1
239 161 448 394 510 99 27 316 12 290 -19 -11 -13 -9 -41 2 -52 4 -4 7 0 7 8
0 22 62 138 71 133 10 -7 23 175 16 226 -8 59 14 35 64 -70 23 -47 53 -99 68
-114 32 -36 78 -60 98 -53 18 7 7 24 -66 101 -47 49 -50 56 -41 80 10 26 12
27 68 21 147 -14 380 -18 402 -6 28 15 80 30 80 24 0 -3 -15 -11 -32 -19 l-33
-13 35 -6 c19 -3 83 -7 143 -9 91 -4 107 -3 107 10 0 13 11 15 64 11 58 -5 86
2 86 21 0 4 -27 4 -59 3 -33 -2 -128 1 -210 7 -141 9 -154 9 -193 -9 -42 -19
-99 -27 -84 -12 4 4 24 12 44 18 35 11 32 12 -48 14 -221 7 -316 15 -352 30
-19 7 -15 12 8 9 8 -1 24 22 24 34 0 5 -4 5 -10 2 -5 -3 -10 -1 -10 5 0 7 8 9
20 5 21 -7 22 -6 24 37 1 19 -4 28 -18 32 -28 7 -44 -6 -18 -15 26 -10 29 -29
5 -29 -25 1 -58 27 -41 32 28 10 -94 41 -209 53 -68 8 -127 16 -133 20 -5 3
-10 15 -10 26 0 23 -25 26 -34 3z m71 -64 c24 0 31 -14 13 -25 -13 -8 -60 21
-60 37 0 9 3 9 12 0 7 -7 22 -12 35 -12z m51 -41 c-19 -26 -48 -40 -48 -23 0
18 43 62 55 58 12 -5 10 -11 -7 -35z m76 4 c4 -4 23 -6 42 -4 28 2 118 -20
146 -36 6 -3 -6 -42 -18 -61 -3 -6 -77 35 -113 62 -39 29 -48 28 -31 -4 7 -12
8 -20 3 -18 -4 2 -27 13 -50 23 -34 14 -41 21 -32 32 12 14 41 17 53 6z m79
-67 c50 -38 135 -67 215 -73 39 -3 72 -10 72 -16 0 -6 -33 -7 -85 -4 -52 4
-85 2 -85 -3 0 -6 -4 -10 -10 -10 -5 0 -10 9 -10 20 0 27 -17 25 -26 -2 -4
-13 -2 -24 5 -26 6 -2 11 -13 11 -25 0 -29 58 -110 98 -136 37 -25 37 -40 0
-21 -46 24 -81 66 -113 136 -18 39 -48 89 -67 110 -33 37 -54 74 -42 74 3 0
20 -11 37 -24z m3 -372 c-3 -8 -10 -12 -16 -9 -7 4 -6 14 2 28 12 24 24 8 14
-19z m-6 -44 c13 -9 12 -13 -7 -29 -22 -19 -63 -18 -63 0 0 5 11 7 24 3 13 -3
27 -1 30 5 4 6 0 11 -8 11 -9 0 -16 5 -16 10 0 13 21 13 40 0z m-406 -226 c64
-85 116 -162 116 -170 0 -9 5 -12 11 -8 8 4 7 0 -1 -15 -6 -12 -15 -19 -20
-16 -4 3 -10 0 -12 -7 -3 -8 -20 -12 -44 -12 -83 3 -379 26 -383 30 -9 9 22
117 51 176 29 58 135 178 157 178 5 0 61 -70 125 -156z m359 138 c-4 -19 -116
-241 -158 -314 -36 -62 -60 -86 -73 -73 -3 2 1 11 8 20 7 8 9 15 5 15 -5 0 -1
8 7 18 9 9 53 93 99 185 60 121 87 167 99 164 8 -2 14 -8 13 -15z m-443 -368
l125 -7 -163 -55 c-90 -30 -162 -56 -159 -58 2 -2 77 21 168 52 90 30 176 57
191 59 62 8 9 -40 -161 -147 -95 -59 -174 -108 -177 -108 -7 0 -54 99 -54 114
0 8 6 17 13 19 7 4 6 6 -4 6 -20 1 -29 30 -29 95 l0 49 63 -6 c34 -4 118 -9
187 -13z m259 -45 c-22 -14 -33 -10 -19 6 7 8 17 12 22 9 6 -4 5 -10 -3 -15z
m-62 4 c-13 -12 27 -32 45 -22 23 12 24 11 79 -214 24 -98 45 -174 47 -169 1
5 -15 82 -38 170 -22 89 -40 164 -40 167 0 3 47 -57 105 -134 58 -77 105 -144
105 -149 0 -23 -182 -92 -242 -92 l-28 0 0 175 c0 96 -3 175 -8 175 -4 0 -6
-79 -4 -175 l4 -175 -29 0 c-40 0 -136 26 -181 49 -82 43 -85 28 43 211 126
178 135 190 143 190 3 0 2 -3 -1 -7z m261 -119 l152 -127 -26 -30 c-14 -17
-36 -38 -49 -48 l-23 -19 -114 153 c-63 83 -117 158 -122 165 -9 15 0 32 17
32 7 0 81 -57 165 -126z m-341 39 c-18 -27 -67 -95 -107 -153 -40 -58 -75
-107 -78 -110 -2 -3 -26 19 -54 49 -34 37 -46 57 -39 64 10 10 303 196 309
197 2 0 -12 -21 -31 -47z"/>
<path d="M280 876 c8 -7 70 -59 138 -115 67 -55 117 -101 110 -101 -13 -1 46
-31 70 -36 20 -4 14 3 -20 23 -18 11 -93 70 -166 131 -74 62 -137 112 -140
112 -3 0 0 -6 8 -14z"/>
<path d="M200 757 c0 -6 171 -59 176 -55 2 3 -27 14 -64 25 -100 32 -112 35
-112 30z"/>
<path d="M435 680 c28 -10 57 -18 65 -18 8 0 -7 8 -35 18 -27 10 -57 18 -65
18 -8 0 8 -8 35 -18z"/>
<path d="M551 333 c-39 -98 -71 -182 -71 -188 1 -5 30 62 65 150 36 88 70 170
77 182 6 13 9 25 6 28 -3 3 -38 -74 -77 -172z"/>
<path d="M2013 1638 c-6 -7 -25 -58 -43 -113 -18 -55 -40 -105 -49 -112 -14
-10 -13 -13 9 -21 61 -23 70 -24 70 -7 0 9 -8 19 -18 22 -18 4 -18 8 5 76 12
39 23 76 23 83 0 21 41 64 63 65 21 0 21 1 2 9 -29 13 -51 12 -62 -2z"/>
<path d="M2016 1514 c-15 -47 -26 -87 -24 -89 2 -2 18 37 35 86 17 49 28 89
24 89 -4 0 -19 -39 -35 -86z"/>
<path d="M584 1545 c-3 -14 -4 -40 0 -57 4 -22 1 -37 -11 -52 -18 -21 -18 -21
3 -3 18 15 22 29 21 78 0 65 -3 72 -13 34z"/>
<path d="M1468 1433 c7 -3 16 -2 19 1 4 3 -2 6 -13 5 -11 0 -14 -3 -6 -6z"/>
<path d="M1953 1346 c-6 -8 -9 -17 -6 -20 11 -11 21 -6 26 14 6 23 -3 25 -20
6z"/>
<path d="M1855 1316 c39 -8 82 -19 97 -25 32 -12 88 -85 88 -114 0 -11 9 -35
21 -53 11 -19 17 -34 13 -34 -4 0 4 -13 19 -28 15 -16 24 -32 20 -37 -9 -9 9
-4 92 26 33 12 88 24 123 27 l62 5 0 -211 c0 -116 -4 -213 -9 -216 -11 -7 -30
15 -42 51 -8 26 -9 26 -4 -7 4 -31 3 -32 -7 -15 -7 11 -13 25 -14 31 -3 16
-174 266 -192 282 -23 17 -31 15 -27 -8 6 -30 205 -320 221 -321 25 -3 29 -4
54 -22 13 -9 21 -17 16 -17 -5 0 -3 -7 4 -15 7 -8 16 -13 19 -10 4 2 8 -2 8
-10 0 -8 -5 -11 -10 -8 -6 4 -8 0 -4 -10 4 -11 2 -14 -9 -10 -8 3 -14 -1 -14
-8 0 -11 -2 -11 -8 -1 -9 14 -54 2 -67 -17 -10 -17 -25 -13 -18 6 4 11 3 14
-6 9 -7 -5 -10 -14 -7 -22 5 -14 -231 -169 -282 -184 -62 -19 7 -8 100 15 55
14 102 24 105 22 2 -3 -22 -41 -54 -86 l-57 -81 -53 52 c-29 29 -53 47 -53 41
0 -34 180 -163 228 -163 10 0 24 -6 31 -13 19 -19 214 -15 276 6 112 39 199
103 255 187 188 279 60 652 -257 750 -88 27 -218 27 -293 -1 -30 -11 -62 -22
-71 -25 -17 -6 -48 32 -54 68 -2 11 -10 27 -17 36 -7 9 -17 21 -21 27 -4 5
-20 31 -36 56 -35 56 -79 78 -168 84 l-68 5 70 -14z m620 -247 c22 -5 45 -12
52 -14 8 -3 -10 -59 -54 -167 -36 -90 -67 -165 -69 -167 -2 -2 -4 77 -4 177 0
204 -5 192 75 171z m125 -49 c40 -20 160 -130 160 -146 0 -5 -55 -44 -123 -86
-109 -69 -187 -122 -147 -102 14 8 199 123 253 159 l26 17 22 -44 c29 -56 49
-132 49 -186 0 -37 -3 -43 -17 -38 -10 2 -83 7 -163 10 l-145 4 157 -12 c87
-6 161 -15 165 -19 19 -20 -60 -247 -87 -247 -11 0 -252 201 -247 206 2 2 18
-1 36 -7 18 -6 34 -9 37 -7 2 3 -17 11 -43 18 -26 7 -58 19 -70 26 -14 9 -24
10 -28 4 -3 -6 -1 -10 5 -10 13 0 298 -231 299 -242 1 -11 -77 -88 -88 -88 -5
0 -59 68 -121 151 -106 142 -111 152 -105 187 5 29 11 37 28 39 26 1 329 104
324 109 -2 2 -70 -19 -152 -46 -82 -28 -163 -50 -179 -50 l-30 0 27 28 c15 15
27 31 27 35 0 5 17 31 38 60 76 104 153 217 149 217 -3 0 -56 -71 -118 -159
-73 -102 -118 -158 -128 -156 -10 1 -15 10 -13 21 7 36 146 374 154 374 5 0
27 -9 48 -20z m-240 -495 c0 -8 -7 -15 -15 -15 -8 0 -15 5 -15 11 0 5 -5 7
-12 3 -7 -4 -8 -3 -4 4 10 17 46 15 46 -3z m56 -10 c3 -14 10 -25 14 -25 7 0
210 -264 210 -273 0 -2 -31 -18 -68 -36 -67 -30 -178 -58 -190 -47 -3 3 -7 76
-10 161 -3 112 -2 155 7 155 14 0 14 43 0 57 -6 6 -8 16 -5 22 12 20 35 12 42
-14z m-158 -54 c-31 -46 -37 -50 -112 -70 -43 -12 -79 -21 -81 -19 -4 4 207
137 218 138 4 0 -8 -22 -25 -49z m70 10 c0 -24 -5 -30 -37 -40 -55 -16 -55
-16 -21 34 33 49 57 51 58 6z m31 -11 c0 -10 -3 -8 -9 5 -12 27 -12 43 0 25 5
-8 9 -22 9 -30z m18 8 c-3 -7 -5 -2 -5 12 0 14 2 19 5 13 2 -7 2 -19 0 -25z
m-15 -180 c3 -84 3 -155 1 -157 -6 -8 -128 18 -131 28 -2 6 -9 8 -17 5 -20 -8
-118 45 -112 61 3 7 29 45 57 84 28 41 48 77 44 84 -4 7 -4 9 -1 6 4 -3 37 5
74 17 38 13 71 23 74 23 4 1 9 -68 11 -151z"/>
<path d="M2635 500 c28 -10 57 -18 65 -18 8 0 -7 8 -35 18 -27 10 -57 18 -65
18 -8 0 8 -8 35 -18z"/>
<path d="M2750 465 c19 -7 42 -13 50 -13 8 0 -1 6 -20 13 -19 7 -42 13 -50 13
-8 0 1 -6 20 -13z"/>
<path d="M2435 450 c7 -46 73 -289 74 -270 0 8 -18 80 -39 160 -22 80 -38 129
-35 110z"/>
<path d="M2306 380 c-22 -56 -19 -65 5 -11 11 24 18 46 15 48 -2 2 -11 -14
-20 -37z"/>
<path d="M2276 305 c-9 -26 -7 -32 5 -12 6 10 9 21 6 23 -2 3 -7 -2 -11 -11z"/>
<path d="M2246 230 c-22 -56 -19 -65 5 -11 11 24 18 46 15 48 -2 2 -11 -14
-20 -37z"/>
<path d="M926 1244 c-9 -26 -14 -49 -12 -52 10 -9 26 11 35 46 16 55 -4 61
-23 6z"/>
<path d="M1780 988 c-58 -165 -112 -308 -120 -316 -13 -14 -13 -15 3 -9 10 4
17 2 17 -6 1 -23 18 18 55 133 20 63 42 124 47 134 6 11 14 31 18 45 5 14 31
91 59 171 28 79 51 146 51 147 0 2 -6 3 -12 3 -8 0 -56 -123 -118 -302z"/>
<path d="M1936 1245 c4 -15 2 -25 -4 -25 -18 0 -41 -57 -113 -275 -38 -116
-73 -217 -78 -225 -5 -9 -11 -31 -15 -50 l-6 -35 17 24 c10 13 57 139 105 280
48 141 89 260 91 265 1 5 22 -21 46 -58 29 -44 50 -66 60 -64 23 5 20 14 -40
105 -55 85 -74 102 -63 58z"/>
<path d="M957 1193 c-10 -10 -8 -25 2 -19 5 4 39 -28 77 -69 37 -42 69 -73 71
-71 8 7 -9 30 -62 87 -62 66 -80 81 -88 72z"/>
<path d="M2233 1155 c-90 -25 -127 -43 -114 -58 9 -11 24 -9 83 11 89 30 223
34 306 9 149 -45 264 -142 331 -279 84 -172 74 -358 -27 -514 -240 -368 -793
-306 -943 107 -18 49 -26 59 -45 59 -17 0 -24 -6 -24 -19 0 -11 -5 -32 -11
-48 l-11 -28 -15 28 c-17 33 -11 57 14 57 13 0 14 3 6 11 -9 9 -16 8 -28 -5
-24 -24 -45 -20 -45 8 0 15 -10 32 -26 43 -21 16 -27 28 -28 66 0 26 -4 47 -8
47 -13 0 -50 134 -38 138 16 6 12 29 -6 36 -29 11 -71 6 -84 -10 -11 -13 -10
-16 7 -20 17 -5 26 -28 53 -132 18 -70 34 -144 34 -164 l1 -37 -37 42 c-20 23
-37 38 -38 32 0 -5 -7 3 -15 19 -8 15 -13 32 -10 36 6 10 -188 225 -216 240
-11 6 -17 15 -14 21 4 5 21 -2 38 -15 18 -13 65 -39 105 -57 40 -17 71 -37 70
-43 -5 -15 49 -69 56 -58 3 5 -12 30 -34 54 -28 33 -68 59 -147 98 -116 58
-173 95 -173 115 0 15 -35 47 -43 39 -13 -14 -20 53 -10 100 13 61 -1 85 -16
30 -24 -87 -18 -104 66 -185 43 -41 78 -77 78 -81 0 -4 34 -44 76 -90 41 -46
92 -102 113 -125 l38 -43 -16 -40 c-9 -22 -15 -55 -15 -73 l1 -32 7 30 7 30 5
-32 c3 -19 1 -34 -5 -36 -17 -6 24 -76 62 -105 19 -14 57 -33 85 -43 49 -17
53 -20 66 -65 9 -35 10 -49 2 -52 -14 -5 -15 -32 0 -32 5 0 7 5 4 11 -4 6 2 5
14 -3 17 -11 25 -11 42 0 12 8 18 9 14 3 -3 -6 -2 -11 4 -11 19 0 21 19 3 29
-11 6 -24 30 -31 55 -14 58 -14 66 4 66 25 0 117 22 112 27 -3 2 -33 -1 -66
-8 -34 -6 -64 -9 -68 -6 -10 10 18 37 36 35 10 -2 15 3 13 14 -1 9 3 20 9 24
8 5 9 3 4 -6 -5 -8 -4 -11 3 -6 6 4 8 14 5 23 -4 11 -3 14 6 9 6 -4 11 -4 10
1 -8 48 8 34 42 -36 96 -196 286 -315 504 -315 161 0 301 60 409 175 171 181
205 431 88 654 -115 219 -394 343 -629 280z m-628 -355 c-8 -13 -45 -13 -65 0
-11 7 -3 10 28 10 26 0 41 -4 37 -10z m25 -175 c0 -8 -2 -15 -4 -15 -2 0 -6 7
-10 15 -3 8 -1 15 4 15 6 0 10 -7 10 -15z m7 -77 c-3 -7 -5 -2 -5 12 0 14 2
19 5 13 2 -7 2 -19 0 -25z m-133 -12 c-3 -14 -10 -26 -15 -26 -4 0 -3 14 3 31
12 36 22 33 12 -5z m183 -47 c3 -16 13 -31 23 -34 10 -3 21 -13 24 -23 3 -9 8
-22 11 -28 4 -7 -3 -10 -18 -7 -14 3 -28 0 -32 -7 -5 -8 -12 -6 -26 6 -18 16
-20 16 -40 -2 -21 -19 -22 -19 -16 1 3 11 9 38 13 60 4 22 10 45 15 51 16 20
40 11 46 -17z m-111 -30 c12 -14 15 -27 9 -55 l-6 -37 -25 25 c-14 13 -27 40
-31 60 -5 33 -4 36 15 31 11 -3 28 -13 38 -24z m-41 -84 c17 -23 21 -33 9 -23
-10 9 -28 32 -38 50 -22 39 -11 29 29 -27z m128 -15 c4 -16 0 -20 -19 -20 -26
0 -30 10 -12 28 17 17 25 15 31 -8z m68 7 c-1 -12 -15 -9 -19 4 -3 6 1 10 8 8
6 -3 11 -8 11 -12z m-26 -26 c3 -5 1 -12 -5 -16 -5 -3 -10 1 -10 9 0 18 6 21
15 7z m-37 -34 c6 0 12 -4 12 -9 0 -11 -60 0 -74 13 -5 5 3 6 20 2 16 -3 35
-6 42 -6z"/>
<path d="M1655 470 c-16 -7 -17 -9 -3 -9 9 -1 20 4 23 9 7 11 7 11 -20 0z"/>
<path d="M1648 443 c7 -3 16 -2 19 1 4 3 -2 6 -13 5 -11 0 -14 -3 -6 -6z"/>
<path d="M1170 1107 c0 -10 6 -24 13 -31 6 -7 37 -41 67 -75 81 -91 182 -192
188 -187 2 3 -49 64 -114 137 -66 72 -127 141 -136 152 -16 20 -18 20 -18 4z"/>
<path d="M1959 992 c-73 -76 -125 -174 -142 -263 -11 -56 -13 -59 -42 -60 -30
-2 -30 -2 -2 -6 24 -4 27 -9 27 -42 0 -20 5 -42 11 -48 8 -8 7 -13 -2 -18 -7
-5 -10 -4 -6 2 4 6 -4 22 -17 36 -13 14 -22 28 -19 31 3 2 -2 3 -11 2 -29 -4
-29 -16 -1 -38 l28 -22 -24 -8 c-12 -5 -29 -6 -36 -4 -8 3 -13 -2 -13 -15 0
-19 4 -20 58 -13 31 3 60 8 65 11 4 2 7 37 7 78 0 132 59 271 154 365 37 35
48 42 58 31 11 -10 7 -18 -19 -39 -75 -64 -165 -245 -150 -302 3 -11 1 -20 -4
-20 -5 0 -7 -22 -5 -50 2 -30 -1 -51 -8 -54 -6 -2 -2 -5 9 -5 18 -1 20 4 17
35 l-4 35 113 -7 c151 -9 258 -21 204 -23 -79 -2 -281 -35 -318 -51 l-39 -17
34 -6 c38 -5 150 9 191 25 15 6 30 9 32 6 3 -3 -38 -20 -90 -38 -93 -32 -96
-32 -111 -14 -14 18 -15 18 -10 -3 14 -55 19 -70 38 -101 28 -46 34 -33 9 17
-12 22 -21 44 -21 49 0 14 196 83 265 93 33 5 68 14 77 19 10 6 24 10 31 10 7
0 20 9 30 20 19 23 11 53 -18 63 -18 7 -305 246 -305 255 0 3 19 22 42 43 38
36 40 40 26 56 -8 10 -18 26 -21 36 -4 9 -10 17 -15 17 -5 0 -38 -30 -73 -68z
m307 -329 c-2 -2 -52 12 -112 32 -60 19 -113 35 -119 34 -5 -1 35 -16 90 -34
l100 -34 -164 0 -164 -1 6 45 c6 40 54 150 79 182 7 8 49 -22 148 -105 77 -64
138 -118 136 -119z m35 -23 c29 -16 23 -37 -13 -42 -18 -3 -67 -2 -108 3 -41
4 -123 10 -182 14 -83 5 -108 10 -108 21 0 12 34 14 196 14 115 0 203 -4 215
-10z"/>
<path d="M1960 745 c19 -7 42 -13 50 -13 8 0 -1 6 -20 13 -19 7 -42 13 -50 13
-8 0 1 -6 20 -13z"/>
<path d="M2251 1042 c-1 -19 72 -308 75 -297 2 6 -14 78 -35 160 -22 83 -40
144 -40 137z"/>
<path d="M521 1004 c0 -11 3 -14 6 -6 3 7 2 16 -1 19 -3 4 -6 -2 -5 -13z"/>
<path d="M1230 949 c0 -5 5 -7 10 -4 6 3 10 8 10 11 0 2 -4 4 -10 4 -5 0 -10
-5 -10 -11z"/>
<path d="M1430 733 c0 -15 28 -43 43 -43 7 0 4 5 -5 11 -10 5 -22 17 -27 27
-6 9 -11 12 -11 5z"/>
<path d="M1508 643 c6 -2 12 -11 12 -19 0 -8 5 -14 10 -14 6 0 10 4 10 8 0 12
-22 32 -34 31 -6 0 -5 -3 2 -6z"/>
<path d="M2360 595 c0 -8 7 -15 15 -15 8 0 15 7 15 15 0 8 -7 15 -15 15 -8 0
-15 -7 -15 -15z"/>
<path d="M1700 585 c0 -8 5 -15 10 -15 6 0 10 7 10 15 0 8 -4 15 -10 15 -5 0
-10 -7 -10 -15z"/>
</g>
</svg>
