<?xml version="1.0" standalone="no"?>
<!DOCTYPE svg PUBLIC "-//W3C//DTD SVG 20010904//EN"
 "http://www.w3.org/TR/2001/REC-SVG-20010904/DTD/svg10.dtd">
<svg version="1.0" xmlns="http://www.w3.org/2000/svg"
 width="300.000000pt" height="268.000000pt" viewBox="0 0 300.000000 268.000000"
 preserveAspectRatio="xMidYMid meet">
<metadata>
Created by potrace 1.10, written by Peter Selinger 2001-2011
</metadata>
<g transform="translate(0.000000,268.000000) scale(0.100000,-0.100000)"
fill="#ffffff" stroke="none">
<path d="M1361 2613 c0 -25 1 -26 9 -8 12 27 12 35 0 35 -5 0 -10 -12 -9 -27z"/>
<path d="M1887 2634 c-4 -4 -7 -17 -7 -28 1 -19 1 -20 11 -3 11 19 8 43 -4 31z"/>
<path d="M1900 2593 c0 -18 48 -71 71 -78 22 -7 79 -80 79 -101 0 -7 -9 -16
-20 -19 -11 -4 -18 -11 -14 -16 3 -5 10 -7 15 -4 5 4 9 1 9 -4 0 -6 -4 -11
-10 -11 -5 0 -10 -10 -10 -22 l1 -23 19 24 c11 13 20 38 20 56 0 39 -47 108
-90 130 -17 9 -40 30 -50 48 -11 18 -20 27 -20 20z"/>
<path d="M980 2556 c0 -14 -5 -37 -11 -53 -6 -18 -7 -24 0 -18 14 14 31 95 20
95 -5 0 -9 -11 -9 -24z"/>
<path d="M1336 2548 l-18 -33 21 25 c18 22 26 40 18 40 -1 0 -11 -15 -21 -32z"/>
<path d="M1871 2488 c0 -53 3 -99 9 -103 5 -3 7 -11 4 -18 -2 -7 3 -21 11 -32
15 -19 16 -18 10 18 -4 25 -2 37 6 37 7 0 5 8 -6 20 -12 13 -20 45 -25 97 l-7
78 -2 -97z"/>
<path d="M1392 2555 c0 -11 3 -29 8 -40 11 -25 11 1 0 35 -6 20 -8 21 -8 5z"/>
<path d="M1000 2551 c0 -6 4 -13 10 -16 6 -3 7 1 4 9 -7 18 -14 21 -14 7z"/>
<path d="M1746 2510 c-3 -17 -19 -43 -36 -58 -70 -62 -110 -104 -110 -114 0
-6 13 7 29 30 17 22 39 43 50 47 11 3 31 19 44 35 14 16 28 26 31 22 4 -3 4 1
0 11 -3 10 -1 17 5 17 6 0 11 9 11 20 0 31 -17 24 -24 -10z"/>
<path d="M1024 2503 c24 -78 26 -116 10 -141 -14 -22 -14 -24 -1 -19 23 9 30
-23 10 -45 -11 -12 -13 -22 -6 -29 18 -18 37 20 36 71 -1 44 -38 180 -49 180
-3 0 -3 -8 0 -17z"/>
<path d="M1279 2493 l-24 -28 28 24 c25 23 32 31 24 31 -2 0 -14 -12 -28 -27z"/>
<path d="M1401 2470 c-1 -14 -8 -37 -15 -52 -10 -18 -11 -30 -4 -34 5 -3 8
-17 5 -30 -2 -14 0 -27 4 -30 5 -3 9 -2 10 3 0 4 3 17 5 28 12 51 14 82 5 110
-9 28 -9 29 -10 5z"/>
<path d="M934 2448 l-19 -23 23 19 c21 18 27 26 19 26 -2 0 -12 -10 -23 -22z"/>
<path d="M1767 2399 c-4 -46 -12 -78 -23 -90 -16 -18 -16 -19 0 -19 15 0 15
-2 1 -30 -14 -26 -14 -30 -1 -30 9 0 19 15 25 38 9 37 16 202 8 202 -2 0 -7
-32 -10 -71z"/>
<path d="M1242 2435 c-7 -14 -12 -35 -12 -45 0 -27 20 -68 36 -74 16 -6 19 20
4 29 -6 4 -8 11 -4 16 3 6 -2 16 -12 24 -16 11 -17 16 -6 40 7 15 11 29 9 31
-2 2 -9 -7 -15 -21z"/>
<path d="M906 2405 c-9 -26 -7 -32 5 -12 6 10 9 21 6 23 -2 3 -7 -2 -11 -11z"/>
<path d="M1305 2400 c-4 -6 -5 -32 -3 -58 3 -40 0 -47 -17 -50 -47 -9 -48 -16
-41 -194 l8 -167 -49 -6 c-26 -4 -55 -7 -63 -8 -12 -2 -17 24 -25 145 -5 80
-13 149 -17 153 -3 4 -24 13 -45 20 -34 12 -39 18 -48 61 -8 39 -14 49 -30 49
-17 0 -20 -7 -20 -47 0 -42 -3 -49 -27 -59 -15 -6 -30 -18 -34 -27 -7 -18 -6
-306 2 -326 3 -8 -21 -18 -68 -30 -171 -40 -351 -128 -455 -220 -79 -71 -128
-151 -149 -243 -31 -140 -7 -253 68 -319 l33 -29 0 -172 0 -171 -41 -31 c-90
-65 -123 -144 -89 -215 116 -243 1032 -391 1805 -290 355 46 633 136 726 236
44 46 54 69 54 123 0 40 -5 51 -44 93 -24 26 -66 60 -93 76 l-48 29 0 158 0
159 27 11 c15 6 46 31 68 55 149 161 115 434 -74 599 -93 83 -283 165 -451
197 l-64 12 -5 46 c-3 25 -11 104 -17 175 -9 119 -12 132 -35 153 -14 12 -31
22 -39 22 -9 0 -15 15 -17 48 -3 39 -6 47 -23 47 -17 0 -20 -8 -23 -51 -3 -47
-6 -53 -32 -64 -55 -23 -57 -31 -51 -195 4 -82 6 -151 5 -153 -1 -2 -19 0 -39
4 l-37 7 3 96 c3 109 -6 134 -52 150 -30 10 -31 13 -27 56 6 48 -9 72 -37 61
-11 -4 -15 -20 -15 -56 0 -42 -3 -50 -19 -50 -10 0 -29 -8 -40 -18 -18 -14
-24 -33 -31 -112 -5 -52 -10 -105 -10 -117 0 -19 -5 -23 -35 -23 -19 0 -35 3
-35 8 -7 121 -30 305 -40 317 -7 8 -29 20 -50 26 -34 10 -37 15 -46 63 -9 50
-33 73 -49 46z m40 -82 c5 -46 4 -68 -3 -68 -11 0 -15 16 -26 102 -5 37 2 55
15 41 4 -5 10 -38 14 -75z m633 1 c-2 -36 -7 -63 -13 -62 -11 3 -19 107 -10
131 12 33 26 -7 23 -69z m-984 -56 c7 -64 -9 -100 -18 -41 -3 18 -8 49 -11 69
-5 35 2 56 16 42 3 -5 10 -36 13 -70z m704 -30 c-2 -42 -8 -68 -15 -71 -14 -4
-17 38 -7 101 11 61 25 42 22 -30z m325 35 c13 -11 20 -60 36 -255 12 -134 21
-256 21 -273 l0 -30 -89 0 -89 0 -9 263 c-8 250 -8 263 10 280 23 21 37 22 37
3 0 -8 6 -16 13 -18 20 -8 37 2 37 23 0 22 10 24 33 7z m-686 -28 c9 0 21 7
27 16 10 13 16 14 39 3 33 -15 32 -13 52 -289 9 -118 18 -225 21 -237 4 -20 0
-23 -29 -23 -19 0 -61 -3 -94 -6 l-59 -6 -12 258 c-7 143 -12 269 -12 281 0
24 31 36 43 16 4 -7 15 -13 24 -13z m-351 -60 c9 0 22 8 29 17 11 14 17 15 37
6 24 -11 24 -15 36 -199 7 -104 15 -223 19 -265 l6 -76 -59 -6 c-33 -4 -73 -9
-90 -13 l-31 -6 -10 274 c-9 266 -8 273 11 291 19 18 20 18 28 -2 4 -12 15
-21 24 -21z m674 -14 c0 -26 23 -30 40 -8 16 19 19 20 40 5 23 -16 23 -17 16
-192 -3 -97 -9 -218 -13 -268 l-6 -93 -89 0 -88 0 6 53 c3 28 14 153 24 276
18 223 22 240 58 241 6 0 12 -6 12 -14z m-91 -278 c0 -18 -6 -91 -13 -162 -9
-94 -9 -129 -1 -132 6 -3 54 -3 106 -2 l94 3 6 130 c4 72 7 145 8 163 l1 34
53 -7 c28 -4 53 -8 55 -10 1 -1 5 -49 10 -106 l7 -104 100 3 c55 2 101 5 103
7 2 2 -1 43 -6 92 -5 48 -8 89 -8 90 4 5 177 -37 236 -57 209 -70 356 -191
406 -334 67 -188 -9 -393 -161 -436 -67 -19 -86 -12 -117 45 -34 63 -73 83
-118 60 -18 -9 -32 -26 -36 -43 -29 -133 -51 -157 -157 -173 -43 -6 -87 -19
-98 -28 -10 -9 -27 -41 -37 -71 -15 -50 -20 -55 -48 -58 -50 -5 -88 35 -124
131 -48 124 -87 167 -152 169 -43 1 -78 -40 -78 -91 0 -78 -52 -77 -175 4 -93
61 -120 59 -218 -14 -64 -49 -132 -80 -173 -81 -42 0 -111 46 -168 113 -60 71
-124 112 -206 133 -75 19 -91 15 -197 -47 -37 -21 -80 -39 -95 -39 -38 0 -82
41 -108 102 -19 45 -22 64 -17 133 6 96 32 168 86 239 81 108 248 206 461 270
l115 34 7 -41 c3 -23 7 -75 7 -115 1 -65 3 -73 19 -68 9 2 56 10 104 16 l88
12 -5 72 c-3 39 -8 88 -10 108 -5 40 -7 40 117 51 l36 3 7 -103 7 -102 62 5
c147 12 146 12 145 47 0 18 -3 64 -7 104 l-8 72 41 4 c22 2 43 4 48 5 4 1 7
-13 6 -30z m837 -750 c11 -13 25 -35 32 -50 17 -41 55 -62 98 -53 67 12 32
-18 -95 -82 -108 -54 -307 -128 -400 -148 -33 -7 -34 -7 -27 21 20 84 34 95
143 109 30 4 64 16 79 28 29 22 63 89 64 123 0 31 38 74 64 74 12 0 31 -10 42
-22z m-1685 -20 c39 -18 82 -52 145 -116 134 -134 182 -140 324 -40 121 84
143 87 223 32 88 -61 157 -80 185 -52 7 7 12 29 12 50 0 28 7 46 25 63 29 30
50 31 90 6 31 -18 47 -46 104 -173 16 -37 39 -75 50 -85 12 -9 21 -20 21 -24
0 -3 -53 -12 -119 -19 -154 -17 -649 -8 -806 14 -148 21 -254 43 -350 73 -84
26 -208 84 -238 110 -9 9 -20 14 -23 11 -19 -20 139 -100 276 -141 212 -64
430 -88 818 -90 235 -2 307 1 397 16 229 38 438 105 614 198 52 27 95 49 97
49 2 0 4 -23 4 -50 l0 -50 -72 -47 c-196 -127 -519 -207 -888 -221 -561 -22
-1028 49 -1212 184 l-48 34 1 99 0 99 32 6 c18 4 66 27 107 52 67 41 80 45
125 42 28 -3 75 -16 106 -30z m1844 -345 c-8 -136 -24 -183 -73 -216 -194
-128 -520 -207 -936 -227 -399 -19 -743 29 -972 134 -172 80 -204 124 -229
318 l-6 47 50 -33 c188 -127 609 -195 1121 -183 449 11 787 90 1000 236 25 17
46 31 48 31 2 0 1 -48 -3 -107z m83 -123 c239 -154 43 -330 -473 -425 -228
-41 -349 -50 -705 -50 -361 0 -488 11 -739 61 -337 68 -545 188 -517 299 8 32
67 98 111 123 l33 20 12 -46 c36 -145 353 -275 764 -313 160 -15 534 -6 696
16 360 49 675 166 724 269 9 19 16 46 16 60 0 14 4 26 8 26 5 0 37 -18 70 -40z
m-1281 -497 c-20 -2 -52 -2 -70 0 -17 2 0 4 38 4 39 0 53 -2 32 -4z m296 0
c-18 -2 -48 -2 -65 0 -18 2 -4 4 32 4 36 0 50 -2 33 -4z"/>
<path d="M1024 1998 l-19 -23 23 19 c21 18 27 26 19 26 -2 0 -12 -10 -23 -22z"/>
<path d="M1638 1923 c12 -2 30 -2 40 0 9 3 -1 5 -23 4 -22 0 -30 -2 -17 -4z"/>
<path d="M1230 1695 c-7 -9 -8 -15 -2 -15 5 0 12 7 16 15 3 8 4 15 2 15 -2 0
-9 -7 -16 -15z"/>
<path d="M1839 1683 c-13 -16 -12 -17 4 -4 9 7 17 15 17 17 0 8 -8 3 -21 -13z"/>
<path d="M2136 1688 c3 -4 -3 -8 -13 -9 -10 0 -13 -3 -7 -5 7 -3 27 1 45 9
l34 14 -32 0 c-18 0 -30 -4 -27 -9z"/>
<path d="M1185 1660 c-3 -5 -2 -10 4 -10 5 0 13 5 16 10 3 6 2 10 -4 10 -5 0
-13 -4 -16 -10z"/>
<path d="M868 1603 c6 -2 18 -2 25 0 6 3 1 5 -13 5 -14 0 -19 -2 -12 -5z"/>
<path d="M1789 1597 c7 -7 18 -7 33 0 20 9 20 10 -10 10 -22 0 -29 -4 -23 -10z"/>
<path d="M850 1536 c0 -2 8 -10 18 -17 15 -13 16 -12 3 4 -13 16 -21 21 -21
13z"/>
<path d="M520 1494 c0 -11 48 -64 57 -64 4 0 -6 15 -23 32 -16 18 -30 35 -31
37 -2 2 -3 0 -3 -5z"/>
<path d="M900 1476 c0 -2 12 -12 28 -21 l27 -18 -19 21 c-17 20 -36 29 -36 18z"/>
<path d="M1207 1429 c7 -7 15 -10 18 -7 3 3 -2 9 -12 12 -14 6 -15 5 -6 -5z"/>
<path d="M610 1400 c8 -5 20 -10 25 -10 6 0 3 5 -5 10 -8 5 -19 10 -25 10 -5
0 -3 -5 5 -10z"/>
<path d="M357 1299 c7 -7 15 -10 18 -7 3 3 -2 9 -12 12 -14 6 -15 5 -6 -5z"/>
<path d="M1368 1273 c7 -3 16 -2 19 1 4 3 -2 6 -13 5 -11 0 -14 -3 -6 -6z"/>
<path d="M2328 1273 c6 -2 18 -2 25 0 6 3 1 5 -13 5 -14 0 -19 -2 -12 -5z"/>
<path d="M493 1263 c9 -2 23 -2 30 0 6 3 -1 5 -18 5 -16 0 -22 -2 -12 -5z"/>
<path d="M638 1243 c7 -3 16 -2 19 1 4 3 -2 6 -13 5 -11 0 -14 -3 -6 -6z"/>
<path d="M2415 1230 c10 -11 20 -20 23 -20 3 0 -3 9 -13 20 -10 11 -20 20 -23
20 -3 0 3 -9 13 -20z"/>
<path d="M680 1226 c0 -2 7 -7 16 -10 8 -3 12 -2 9 4 -6 10 -25 14 -25 6z"/>
<path d="M721 1208 c2 -2 18 -14 34 -28 l30 -25 -24 28 c-14 15 -29 27 -34 27
-6 0 -8 -1 -6 -2z"/>
<path d="M1651 1201 c-8 -5 4 -7 33 -4 31 4 52 1 63 -8 16 -13 17 -12 4 4 -14
18 -75 23 -100 8z"/>
<path d="M2450 1193 c0 -14 67 -73 83 -73 7 0 -2 9 -19 19 -18 11 -39 30 -48
42 -9 13 -16 18 -16 12z"/>
<path d="M1599 1163 c-13 -16 -12 -17 4 -4 16 13 21 21 13 21 -2 0 -10 -8 -17
-17z"/>
<path d="M1569 1123 c-13 -16 -12 -17 4 -4 16 13 21 21 13 21 -2 0 -10 -8 -17
-17z"/>
<path d="M2111 1127 c2 -1 15 -11 29 -22 l25 -20 -19 23 c-11 12 -24 22 -29
22 -6 0 -8 -1 -6 -3z"/>
<path d="M1150 1095 c-14 -8 -20 -14 -15 -14 6 0 21 6 35 14 14 8 21 14 15 14
-5 0 -21 -6 -35 -14z"/>
<path d="M1825 1090 c10 -11 20 -20 23 -20 3 0 -3 9 -13 20 -10 11 -20 20 -23
20 -3 0 3 -9 13 -20z"/>
<path d="M1430 1075 c13 -14 26 -25 28 -25 3 0 -5 11 -18 25 -13 14 -26 25
-28 25 -3 0 5 -11 18 -25z"/>
<path d="M1054 1028 l-19 -23 23 19 c21 18 27 26 19 26 -2 0 -12 -10 -23 -22z"/>
<path d="M2036 977 c-37 -21 -98 -87 -80 -87 5 0 17 13 26 29 9 17 35 39 57
51 23 11 41 23 41 25 0 7 -2 7 -44 -18z"/>
<path d="M2363 1088 c-6 -7 -13 -26 -17 -42 -4 -17 -24 -46 -44 -65 -21 -19
-27 -29 -15 -23 29 16 62 59 70 91 3 14 10 32 16 39 5 6 7 12 4 12 -2 0 -9 -6
-14 -12z"/>
<path d="M2055 889 c-4 -6 -5 -12 -2 -15 2 -3 7 2 10 11 7 17 1 20 -8 4z"/>
<path d="M608 1103 c7 -3 16 -2 19 1 4 3 -2 6 -13 5 -11 0 -14 -3 -6 -6z"/>
<path d="M671 1107 c2 -2 18 -11 34 -21 l30 -17 -24 20 c-13 12 -28 21 -34 21
-6 0 -8 -1 -6 -3z"/>
<path d="M527 1071 c-25 -17 -65 -37 -89 -45 -24 -8 -35 -15 -25 -16 10 0 32
6 50 14 40 16 134 76 121 76 -6 0 -31 -13 -57 -29z"/>
<path d="M740 1067 c0 -2 26 -26 57 -53 31 -27 54 -44 50 -37 -9 14 -107 97
-107 90z"/>
<path d="M1674 1036 c-3 -8 -4 -25 -2 -38 3 -17 5 -13 9 15 5 38 2 47 -7 23z"/>
<path d="M1242 945 c-34 -36 -54 -61 -44 -56 17 9 118 121 110 121 -2 0 -32
-29 -66 -65z"/>
<path d="M1657 923 c-8 -40 -42 -51 -101 -35 -36 9 -39 9 -22 -4 11 -8 39 -14
63 -14 34 0 46 5 59 25 8 13 14 32 12 42 -3 12 -6 7 -11 -14z"/>
<path d="M900 936 c0 -2 8 -10 18 -17 15 -13 16 -12 3 4 -13 16 -21 21 -21 13z"/>
<path d="M1480 926 c0 -2 8 -10 18 -17 15 -13 16 -12 3 4 -13 16 -21 21 -21
13z"/>
<path d="M1120 870 c-20 -6 -21 -8 -5 -8 11 0 29 3 40 8 25 11 -1 11 -35 0z"/>
<path d="M1038 863 c6 -2 18 -2 25 0 6 3 1 5 -13 5 -14 0 -19 -2 -12 -5z"/>
<path d="M738 753 c7 -3 16 -2 19 1 4 3 -2 6 -13 5 -11 0 -14 -3 -6 -6z"/>
<path d="M808 733 c7 -3 16 -2 19 1 4 3 -2 6 -13 5 -11 0 -14 -3 -6 -6z"/>
<path d="M938 703 c7 -3 16 -2 19 1 4 3 -2 6 -13 5 -11 0 -14 -3 -6 -6z"/>
<path d="M1005 690 c27 -12 35 -12 35 0 0 6 -12 10 -27 9 -25 0 -26 -1 -8 -9z"/>
<path d="M1878 693 c7 -3 16 -2 19 1 4 3 -2 6 -13 5 -11 0 -14 -3 -6 -6z"/>
<path d="M1108 683 c23 -2 59 -2 80 0 20 2 1 4 -43 4 -44 0 -61 -2 -37 -4z"/>
<path d="M1243 683 c9 -2 23 -2 30 0 6 3 -1 5 -18 5 -16 0 -22 -2 -12 -5z"/>
<path d="M1598 683 c6 -2 18 -2 25 0 6 3 1 5 -13 5 -14 0 -19 -2 -12 -5z"/>
<path d="M1733 683 c15 -2 39 -2 55 0 15 2 2 4 -28 4 -30 0 -43 -2 -27 -4z"/>
<path d="M627 659 c7 -7 15 -10 18 -7 3 3 -2 9 -12 12 -14 6 -15 5 -6 -5z"/>
<path d="M725 616 c78 -39 347 -117 395 -115 8 0 -43 15 -115 34 -71 18 -166
47 -210 63 -114 42 -127 46 -70 18z"/>
<path d="M2440 570 c-8 -5 -10 -10 -5 -10 6 0 17 5 25 10 8 5 11 10 5 10 -5 0
-17 -5 -25 -10z"/>
<path d="M2338 533 c7 -3 16 -2 19 1 4 3 -2 6 -13 5 -11 0 -14 -3 -6 -6z"/>
<path d="M2298 523 c7 -3 16 -2 19 1 4 3 -2 6 -13 5 -11 0 -14 -3 -6 -6z"/>
<path d="M2218 503 c7 -3 16 -2 19 1 4 3 -2 6 -13 5 -11 0 -14 -3 -6 -6z"/>
<path d="M1170 489 c57 -14 257 -39 303 -38 23 1 -14 7 -83 15 -69 7 -147 18
-173 24 -57 12 -97 12 -47 -1z"/>
<path d="M2178 493 c7 -3 16 -2 19 1 4 3 -2 6 -13 5 -11 0 -14 -3 -6 -6z"/>
<path d="M2128 483 c7 -3 16 -2 19 1 4 3 -2 6 -13 5 -11 0 -14 -3 -6 -6z"/>
<path d="M1970 464 l-85 -13 75 5 c41 3 91 9 110 13 53 13 1 10 -100 -5z"/>
<path d="M1602 443 c48 -2 129 -2 180 0 51 1 12 3 -87 3 -99 0 -141 -2 -93 -3z"/>
<path d="M891 2349 c-2 -23 19 -79 30 -79 5 0 9 11 9 25 0 15 -6 25 -14 25 -8
0 -17 10 -19 23 -2 12 -5 15 -6 6z"/>
<path d="M1595 2284 c2 -35 19 -63 31 -52 3 4 1 15 -5 26 -8 16 -8 21 3 24 10
2 7 8 -9 20 l-23 18 3 -36z"/>
<path d="M311 84 c0 -11 3 -14 6 -6 3 7 2 16 -1 19 -3 4 -6 -2 -5 -13z"/>
</g>
</svg>
